<svg width="391" height="349" viewBox="0 0 391 349" fill="none" xmlns="http://www.w3.org/2000/svg">
<path d="M229.612 23.6917C192.081 62.5203 172.45 65.3271 124.899 86.8069C86.0226 104.368 47.528 138.502 34.3961 181.033C-0.197821 293.076 153.564 307.087 226.167 288.795C277.283 275.917 297.732 246.258 310.677 197.057C315.711 177.921 317.179 157.223 325.471 139.012C334.38 119.447 352.623 109.921 361.704 92.7422C405.723 9.47934 279.64 -28.0653 229.612 23.6917Z" fill="#406FBF"/>
<path d="M166.604 295.49C117.535 295.489 63.3815 283.014 40.5352 249.205H247.598C254.278 256.698 262.312 262.96 271.315 267.604C259.653 277.035 244.988 284.053 226.165 288.795C209.499 292.994 188.563 295.491 166.604 295.49ZM340.034 118.605C330.435 114.668 319.921 112.497 308.904 112.497C302.018 112.497 295.334 113.344 288.943 114.941V100.93L288.942 58.8936H186.197C199.813 51.0695 212.948 40.9311 229.61 23.6919C245.31 7.44852 268.497 0.00234985 291.572 0.00234985C331.388 0.00234985 370.858 22.1908 370.872 59.6289C370.876 69.6252 368.067 80.7031 361.702 92.7423C356.383 102.804 347.922 110.239 340.034 118.605Z" fill="#E7E8E5"/>
<path d="M386.461 337.694C386.461 343.866 300.79 348.869 195.111 348.869C89.4316 348.869 3.76172 343.866 3.76172 337.694C3.76172 331.522 89.4316 326.519 195.111 326.519C300.79 326.519 386.461 331.522 386.461 337.694Z" fill="#E7E8E5"/>
<path d="M0 38.9473C0 35.5395 2.78838 32.7516 6.19627 32.7516H282.746C286.155 32.7516 288.943 35.5395 288.943 38.9473V58.8936H0V38.9473Z" fill="#17282F"/>
<path d="M50.1012 41.685C47.8206 41.685 45.9647 43.5414 45.9647 45.8221C45.9647 48.1028 47.8206 49.9592 50.1012 49.9592C52.3823 49.9592 54.2381 48.1028 54.2381 45.8221C54.2381 43.5414 52.3823 41.685 50.1012 41.685ZM50.1012 51.0566C47.2153 51.0566 44.8672 48.7078 44.8672 45.8221C44.8672 42.9364 47.2153 40.5886 50.1012 40.5886C52.9875 40.5886 55.3352 42.9364 55.3352 45.8221C55.3352 48.7078 52.9875 51.0566 50.1012 51.0566Z" fill="#EDEDEB"/>
<path d="M33.4997 41.685C31.2186 41.685 29.3629 43.5414 29.3629 45.8221C29.3629 48.1028 31.2186 49.9592 33.4997 49.9592C35.7808 49.9592 37.6365 48.1028 37.6365 45.8221C37.6365 43.5414 35.7808 41.685 33.4997 41.685ZM33.4997 51.0566C30.6138 51.0566 28.2656 48.7078 28.2656 45.8221C28.2656 42.9364 30.6138 40.5886 33.4997 40.5886C36.3856 40.5886 38.7338 42.9364 38.7338 45.8221C38.7338 48.7078 36.3856 51.0566 33.4997 51.0566Z" fill="#EDEDEB"/>
<path d="M16.8981 41.685C14.6171 41.685 12.7612 43.5414 12.7612 45.8221C12.7612 48.1028 14.6171 49.9592 16.8981 49.9592C19.1791 49.9592 21.035 48.1028 21.035 45.8221C21.035 43.5414 19.1791 41.685 16.8981 41.685ZM16.8981 51.0566C14.0122 51.0566 11.6641 48.7078 11.6641 45.8221C11.6641 42.9364 14.0122 40.5886 16.8981 40.5886C19.784 40.5886 22.1321 42.9364 22.1321 45.8221C22.1321 48.7078 19.784 51.0566 16.8981 51.0566Z" fill="#EDEDEB"/>
<path d="M282.746 249.203H6.19627C2.78838 249.203 0 246.414 0 243.006V58.8923H288.943V243.006C288.943 246.414 286.155 249.203 282.746 249.203Z" fill="#9AB2BC"/>
<path d="M1.75391 227.36H287.187V64.1932H1.75391V227.36Z" fill="white"/>
<path d="M128.226 100.221H19.5024C17.4256 100.221 15.7422 98.537 15.7422 96.4606V81.9413C15.7422 79.8639 17.4256 78.1803 19.5024 78.1803H128.226C130.302 78.1803 131.986 79.8639 131.986 81.9413V96.4606C131.986 98.537 130.302 100.221 128.226 100.221Z" fill="#9AB2BC"/>
<path d="M269.44 78.1803H160.717C158.641 78.1803 156.957 79.8639 156.957 81.9413V96.4606C156.957 98.537 158.641 100.221 160.717 100.221H269.44C271.517 100.221 273.201 98.537 273.201 96.4606V81.9413C273.201 79.8639 271.517 78.1803 269.44 78.1803ZM269.44 79.1672C270.97 79.1672 272.214 80.4116 272.214 81.9413V96.4606C272.214 97.9893 270.97 99.2338 269.44 99.2338H160.717C159.188 99.2338 157.944 97.9893 157.944 96.4606V81.9413C157.944 80.4116 159.188 79.1672 160.717 79.1672H269.44Z" fill="#406FBF"/>
<path d="M35.0658 109.104C24.3934 109.104 15.7422 117.756 15.7422 128.427C15.7422 139.1 24.3934 147.751 35.0658 147.751C45.7373 147.751 54.3885 139.1 54.3885 128.427C54.3885 117.756 45.7373 109.104 35.0658 109.104ZM35.0658 110.091C45.1761 110.091 53.4016 118.317 53.4016 128.427C53.4016 138.538 45.1761 146.764 35.0658 146.764C24.9546 146.764 16.7291 138.538 16.7291 128.427C16.7291 118.317 24.9546 110.091 35.0658 110.091Z" fill="#9AB2BC"/>
<path d="M35.0636 144.372C29.0006 144.372 23.7331 140.992 21.043 136.021C25.0581 133.34 29.8761 131.773 35.0636 131.773C40.2509 131.773 45.069 133.34 49.0841 136.021C46.394 140.992 41.1264 144.372 35.0636 144.372Z" fill="#9AB2BC"/>
<path d="M35.0647 130.073C31.1414 130.073 27.9609 126.892 27.9609 122.969C27.9609 119.046 31.1414 115.865 35.0647 115.865C38.9884 115.865 42.1688 119.046 42.1688 122.969C42.1688 126.892 38.9884 130.073 35.0647 130.073Z" fill="#9AB2BC"/>
<path d="M233.327 138.36H75.1795C69.6938 138.36 65.2461 133.913 65.2461 128.427C65.2461 122.941 69.6938 118.494 75.1795 118.494H252.02C244.853 124.151 238.545 130.85 233.327 138.36Z" fill="#B1CCD7"/>
<path d="M35.0658 161.738C24.3934 161.738 15.7422 170.389 15.7422 181.061C15.7422 191.734 24.3934 200.385 35.0658 200.385C45.7373 200.385 54.3885 191.734 54.3885 181.061C54.3885 170.389 45.7373 161.738 35.0658 161.738ZM35.0658 162.725C45.1761 162.725 53.4016 170.95 53.4016 181.061C53.4016 191.172 45.1761 199.398 35.0658 199.398C24.9546 199.398 16.7291 191.172 16.7291 181.061C16.7291 170.95 24.9546 162.725 35.0658 162.725Z" fill="#9AB2BC"/>
<path d="M35.0636 197.007C29.0006 197.007 23.7331 193.627 21.043 188.656C25.0581 185.973 29.8761 184.408 35.0636 184.408C40.2509 184.408 45.069 185.973 49.0841 188.656C46.394 193.627 41.1264 197.007 35.0636 197.007Z" fill="#9AB2BC"/>
<path d="M35.0647 182.708C31.1414 182.708 27.9609 179.527 27.9609 175.603C27.9609 171.68 31.1414 168.5 35.0647 168.5C38.9884 168.5 42.1688 171.68 42.1688 175.603C42.1688 179.527 38.9884 182.708 35.0647 182.708Z" fill="#9AB2BC"/>
<path d="M216.942 190.995H75.1795C69.6938 190.995 65.2461 186.548 65.2461 181.062C65.2461 175.576 69.6938 171.129 75.1795 171.129H219.038C217.665 177.439 216.941 183.991 216.941 190.707C216.941 190.804 216.941 190.899 216.942 190.995Z" fill="#B1CCD7"/>
<path d="M247.598 249.201H201.595C200.914 246.408 200.559 243.497 200.559 240.497C200.559 235.913 201.413 231.475 202.987 227.36H233.605C237.105 235.39 241.85 242.753 247.598 249.201ZM287.19 115.399V101.337C287.773 101.196 288.358 101.06 288.945 100.929L288.944 114.94C288.358 115.086 287.77 115.24 287.19 115.399Z" fill="#B1CCD7"/>
<path d="M233.602 227.36H202.984C205.959 219.585 211.502 212.961 218.705 208.689C217.549 202.871 216.957 196.948 216.939 190.995H226.881C226.83 192.189 226.804 193.389 226.804 194.596C226.804 206.245 229.228 217.324 233.602 227.36ZM230.207 171.129H219.035C221.636 159.179 226.566 148.09 233.325 138.361H249.087C240.448 147.547 233.901 158.723 230.207 171.129ZM270.742 121.886C268.921 119.807 266.247 118.494 263.266 118.494H252.018C262.221 110.44 274.166 104.5 287.187 101.337V115.399C281.427 116.976 275.922 119.162 270.742 121.886Z" fill="#E0E1DE"/>
<path d="M249.087 138.36H233.324C238.542 130.85 244.85 124.151 252.017 118.494H263.266C266.246 118.494 268.921 119.807 270.742 121.886C262.626 126.153 255.313 131.74 249.087 138.36Z" fill="#B1CCD7"/>
<path d="M226.881 190.995H216.938C216.938 190.899 216.938 190.804 216.938 190.707C216.938 183.991 217.662 177.439 219.035 171.129H230.206C228.319 177.465 227.178 184.119 226.881 190.995Z" fill="#B1CCD7"/>
<path d="M391.003 194.596C391.003 239.938 354.246 276.695 308.904 276.695C263.562 276.695 226.805 239.938 226.805 194.596C226.805 149.254 263.562 112.497 308.904 112.497C354.246 112.497 391.003 149.254 391.003 194.596Z" fill="#B1CCD7"/>
<path d="M384.134 194.488C384.134 235.822 350.626 269.33 309.292 269.33C267.957 269.33 234.449 235.822 234.449 194.488C234.449 153.153 267.957 119.645 309.292 119.645C350.626 119.645 384.134 153.153 384.134 194.488Z" fill="white"/>
<path d="M268.633 183.257C268.613 183.184 268.602 183.084 268.596 182.972L268.683 183.199C268.751 183.433 268.677 183.448 268.633 183.257ZM284.04 144.273L279.264 150.389C279.264 150.389 275.068 153.574 273.481 156.294C271.624 158.134 269.923 160.014 268.245 161.993C266.357 164.242 264.564 166.591 262.879 169.11C261.233 171.664 259.624 174.299 258.416 177.589C257.834 179.255 257.274 181.058 257.223 183.501C257.211 184.721 257.365 186.152 257.969 187.694C258.562 189.237 259.733 190.802 261.101 191.838L262.149 192.632L263.718 192.929C266.879 193.527 270.022 193.822 273.115 193.851L274.36 193.747L273.105 181.261C272.046 181.301 269.779 181.468 268.738 181.445C268.775 181.253 268.815 181.056 268.865 180.857C269.367 178.758 270.323 176.321 271.438 173.959C272.542 171.566 273.815 169.166 275.139 166.771C276.301 164.664 277.549 162.54 278.768 160.469L284.675 156.741L288.147 150.589L284.04 144.273Z" fill="#F57A76"/>
<path d="M317.671 157.496C317.821 156.738 317.581 156.687 317.387 156.69C317.236 156.693 316.759 157.06 316.649 157.517C315.732 158.94 314.6 160.169 313.103 161.251C312.909 161.391 312.719 161.533 312.512 161.668C310.612 162.912 308.622 163.509 306.694 163.585C306.733 163.792 306.771 163.999 306.803 164.206C306.879 164.692 306.932 165.176 306.965 165.654C307.187 168.802 306.366 171.727 302.822 173.398C302.809 173.595 302.34 173.8 302.182 173.94C301.192 174.82 299.817 176.755 299.832 178.429C299.843 179.717 301.038 180.729 302.455 181.953L304.451 183.288L307.154 183.031C315.456 180.594 319.325 173.009 319.148 172.448C316.999 168.936 317.029 162.811 317.671 157.496Z" fill="#F57A76"/>
<path d="M335.618 175.478C335.618 175.478 335.061 175.377 334.111 175.225C332.145 174.91 323.338 172.918 319.087 172.535L319.082 172.542C318.082 174.636 314.862 179.77 306.56 182.206L304.507 182.693L302.573 181.666C301.156 180.443 300.43 179.17 300.419 177.881C300.404 176.207 301.58 174.805 302.57 173.924L302.741 173.695C302.723 173.458 302.722 173.303 302.745 173.28C302.126 173.358 294.257 174.554 293.588 174.661C283.343 176.286 271.809 180.707 271.809 180.707L271.891 181.416L273.317 193.851L273.856 198.555C273.856 198.555 277.812 198.113 282.985 197.2C281.567 209.776 281.299 227.993 285.607 251.414C290.149 251.328 302.456 251.084 302.457 251.098C314.553 250.871 327.245 250.632 331.725 250.548C331.846 248.579 331.632 244.493 331.416 238.908L331.153 230.286C330.994 222.667 331.027 213.529 331.709 203.711C331.817 202.167 331.943 200.603 332.085 199.027L332.09 199.033C338.072 205.504 344.064 211.682 344.064 211.682L346.89 208.957C350.514 207.206 353.366 204.082 355.855 200.315L359.178 197.113C359.178 197.113 343.708 176.838 335.618 175.478Z" fill="#9AB2BC"/>
<path d="M331.709 203.711L329.435 199.825C328.386 198.031 327.728 196.038 327.512 194.008C328.963 195.631 330.524 197.34 332.084 199.027C331.945 200.582 331.82 202.127 331.713 203.652C331.711 203.671 331.71 203.691 331.709 203.711Z" fill="#9AB2BC"/>
<path d="M331.713 203.714L331.711 203.711C331.712 203.691 331.713 203.671 331.715 203.652C331.821 202.127 331.947 200.582 332.087 199.027L332.092 199.033C331.95 200.607 331.819 202.171 331.713 203.714Z" fill="#A7A9A8"/>
<path d="M331.715 203.651C331.821 202.127 331.947 200.582 332.086 199.027H332.087C331.947 200.582 331.821 202.127 331.715 203.651Z" fill="#9AB2BC"/>
<path d="M306.695 163.584C306.734 163.792 306.772 163.999 306.805 164.206C306.773 163.999 306.735 163.792 306.696 163.584H306.695Z" fill="#F57A76"/>
<path d="M313.104 161.251C312.91 161.391 312.72 161.533 312.513 161.668C310.613 162.912 308.624 163.509 306.695 163.585C306.734 163.792 306.772 163.999 306.804 164.207C306.88 164.692 306.933 165.176 306.967 165.654L306.977 165.738C309.098 165.392 311.864 163.442 313.104 161.251Z" fill="#F57A76"/>
<path d="M324.183 174.036C324.006 173.237 323.394 172.563 322.547 172.362L320.496 171.873C319.958 171.744 319.427 171.985 319.149 172.449L319.083 172.542C318.083 174.637 314.863 179.77 306.561 182.207L305.916 182.361V182.36L304.508 182.695L302.574 181.667C301.157 180.444 300.431 179.17 300.42 177.883C300.405 176.208 301.582 174.805 302.571 173.925L302.855 173.559C302.944 173.332 302.926 173.218 302.767 173.119C300.595 171.55 295.709 173.969 295.516 174.389C295.308 174.59 295.101 174.812 294.897 175.056C293.904 176.253 293.066 177.975 293.319 180.288C293.883 185.419 298.138 187.848 298.32 187.949L298.461 187.985L298.617 187.94C298.707 187.883 298.759 187.781 298.751 187.675C298.741 187.527 298.561 184.105 302.405 182.236L304.135 183.155C296.708 213.616 301.745 250.117 301.885 251.105C302.251 251.1 302.458 251.097 302.458 251.099L302.467 251.062C302.413 250.693 297.23 213.868 304.711 183.243L306.524 182.814C308.625 185.381 307.628 189.19 307.618 189.23C307.589 189.337 307.623 189.453 307.708 189.526L307.899 189.597L308.015 189.572C308.41 189.4 317.743 185.306 321.007 181.41C322.945 179.095 323.805 176.645 324.185 174.997C324.26 174.67 324.252 174.344 324.183 174.036Z" fill="white"/>
<path d="M306.977 165.738L306.967 165.654C306.933 165.176 306.88 164.692 306.804 164.207C306.772 163.999 306.734 163.792 306.695 163.585C308.624 163.509 310.613 162.912 312.513 161.668C312.72 161.533 312.91 161.391 313.104 161.251C311.864 163.442 309.098 165.392 306.977 165.738Z" fill="#682329"/>
<path d="M298.742 138.224C299.735 136.452 300.939 134.848 302.364 133.561C301.689 133.053 301.119 132.48 300.69 131.836C299.137 132.565 297.667 134.631 296.906 139.246C296.709 140.44 296.709 141.534 296.824 142.551C297.124 141.682 297.463 140.825 297.845 139.992L298.742 138.224Z" fill="#17282F"/>
<path d="M317.087 150.34C321.54 145.186 318.708 138.621 316.103 137.144C316.584 130.253 306.673 129.352 302.366 133.561C300.941 134.848 299.737 136.452 298.744 138.224L297.847 139.992C297.465 140.825 297.125 141.682 296.826 142.551C295.681 145.874 295.134 149.354 295.149 152.25C295.181 158.854 300.628 163.822 306.695 163.585C308.624 163.509 310.613 162.912 312.513 161.668C312.721 161.533 312.91 161.391 313.104 161.251C314.602 160.169 315.734 158.94 316.65 157.517C318.869 153.971 318.29 152.185 317.087 150.34Z" fill="#F57A76"/>
<path d="M297.305 139.403C297.163 139.58 297.192 139.836 297.368 139.977C297.445 140.04 297.538 140.069 297.63 140.067L297.845 139.991L297.941 139.915C299.093 138.481 300.574 138.555 300.639 138.559C300.857 138.573 301.058 138.403 301.074 138.179C301.088 137.955 300.921 137.761 300.696 137.744C300.642 137.74 299.753 137.702 298.742 138.225C298.265 138.471 297.762 138.833 297.305 139.403Z" fill="#17282F"/>
<path d="M307.979 151.236L307.69 151.232C307.671 151.25 305.774 153.051 302.783 152.455C302.672 152.434 302.565 152.505 302.543 152.615C302.521 152.726 302.592 152.833 302.703 152.855C303.211 152.957 303.687 152.994 304.131 152.986C306.49 152.942 307.905 151.592 307.975 151.525L307.979 151.236Z" fill="#17282F"/>
<path d="M302.659 144.186C302.659 144.186 300.188 147.785 298.035 149.331C298.979 150.69 301.152 150.587 301.152 150.587L302.659 144.186Z" fill="#6B1317"/>
<path d="M299.19 144.426C299.636 144.515 300.127 144.038 300.286 143.361C300.446 142.683 300.213 142.062 299.768 141.972C299.322 141.884 298.832 142.361 298.672 143.039C298.512 143.716 298.744 144.337 299.19 144.426Z" fill="#17282F"/>
<path d="M306.901 145.962C307.348 146.051 307.838 145.573 307.997 144.896C308.157 144.219 307.925 143.597 307.479 143.509C307.033 143.42 306.542 143.897 306.382 144.574C306.223 145.252 306.456 145.873 306.901 145.962Z" fill="#17282F"/>
<path d="M317.005 137.118C316.734 137.134 316.431 137.143 316.103 137.144C315.63 138.238 315.227 139.641 314.932 141.433C314.279 145.381 315.615 148.361 317.087 150.34C319.111 153.778 321.702 153.681 323.947 151.063C327.563 147.593 331.044 140.675 323.854 135.242C322.725 136.208 320.602 136.908 317.005 137.118Z" fill="#17282F"/>
<path d="M322.032 149.031C320.402 148.363 318.555 149.148 317.087 150.34C316.25 151.018 315.534 151.828 315.053 152.58C313.656 154.761 314.152 157.301 316.651 157.517C316.789 157.53 316.93 157.539 317.081 157.536C317.274 157.533 317.474 157.515 317.672 157.496C319.441 157.325 321.404 156.534 322.877 155.027C323.996 153.884 324.357 152.342 323.947 151.062C323.669 150.197 323.049 149.448 322.032 149.031Z" fill="#F57A76"/>
<path d="M302.364 133.562C305.973 136.28 312.546 137.159 316.101 137.143C316.428 137.142 316.731 137.133 317.003 137.118C320.6 136.907 322.723 136.208 323.852 135.242C328.023 131.67 318.514 124.42 318.514 124.42C318.514 124.42 319.575 127.022 317.364 127.74C315.152 128.457 299.566 122.661 299.831 129.239C299.871 130.212 300.183 131.073 300.69 131.836C301.118 132.48 301.689 133.053 302.364 133.562Z" fill="#17282F"/>
<path d="M285.61 251.415C285.61 251.415 285.344 253.716 284.93 257.597C292.46 260.142 300.517 261.543 308.906 261.543C316.817 261.543 324.438 260.307 331.596 258.032C331.703 253.348 331.767 250.548 331.767 250.548L302.458 251.098L301.887 251.108L285.61 251.415Z" fill="#17282F"/>
<path d="M350.382 213.228L350.363 213.08C350.362 212.841 350.445 212.757 350.446 212.897C350.449 212.97 350.427 213.086 350.382 213.228ZM361.916 211.674C361.836 210.849 361.638 210.005 361.346 209.213C361.194 208.823 361.036 208.423 360.842 208.07L360.55 207.531L360.391 207.263C358.99 204.831 357.46 202.533 355.857 200.316L346.892 208.958C348.085 210.434 349.234 211.924 350.301 213.441C350.153 213.831 349.899 214.342 349.543 214.867C348.372 216.602 346.59 218.53 344.657 220.304C340.987 223.722 336.727 226.981 332.522 230.102L331.154 230.287L325.646 231.035L320.23 234.692L323.79 241.941L328.269 239.648C328.269 239.648 329.77 239.473 331.418 238.908C332.937 238.388 334.579 237.533 335.295 236.163C337.969 235.116 340.47 233.947 342.991 232.65C345.636 231.277 348.228 229.762 350.78 228.027C352.053 227.151 353.306 226.209 354.552 225.169C355.798 224.131 357.028 222.983 358.209 221.59C359.375 220.173 360.588 218.563 361.427 216.094C361.833 214.867 362.084 213.333 361.916 211.674Z" fill="#F57A76"/>
<path d="M264.611 236.488C264.611 251.449 252.482 263.578 237.52 263.578C222.559 263.578 210.43 251.449 210.43 236.488C210.43 221.526 222.559 209.397 237.52 209.397C252.482 209.397 264.611 221.526 264.611 236.488Z" fill="#17282F"/>
<path d="M252.414 233.952H240.056V221.594C240.056 220.2 238.915 219.059 237.519 219.059C236.125 219.059 234.984 220.2 234.984 221.594V233.952H222.626C221.232 233.952 220.09 235.094 220.09 236.488C220.09 237.883 221.232 239.025 222.626 239.025H234.984V251.383C234.984 252.777 236.125 253.918 237.519 253.918C238.915 253.918 240.056 252.777 240.056 251.383V239.025H252.414C253.808 239.025 254.949 237.883 254.949 236.488C254.949 235.094 253.808 233.952 252.414 233.952Z" fill="white"/>
<path d="M308.38 140.832C308.457 140.843 309.896 141.067 310.625 142.662C310.695 142.814 310.846 142.904 311.004 142.9L311.166 142.864C311.371 142.77 311.462 142.527 311.368 142.322C310.441 140.292 308.562 140.031 308.484 140.021C308.262 139.993 308.055 140.151 308.027 140.375C307.999 140.598 308.156 140.802 308.38 140.832Z" fill="#17282F"/>
</svg>
