<svg width="141" height="46" viewBox="0 0 141 46" fill="none" xmlns="http://www.w3.org/2000/svg">
<g clipPath="url(#clip0_220_1622)">
<path d="M139.46 25.4648H1.42415C0.646244 25.4648 0.015625 25.7782 0.015625 26.1648C0.015625 26.5514 0.646244 26.8648 1.42415 26.8648H139.46C140.238 26.8648 140.868 26.5514 140.868 26.1648C140.868 25.7782 140.238 25.4648 139.46 25.4648Z" fill="black"/>
<g clipPath="url(#clip1_220_1622)">
<g clipPath="url(#clip2_220_1622)">
<g clipPath="url(#clip3_220_1622)">
<g clipPath="url(#clip4_220_1622)">
<path d="M4.38198 46.0505C3.09373 46.0505 2.10221 45.7755 1.40742 45.2255C0.712629 44.6754 0.365234 43.9734 0.365234 43.1194C0.365234 42.5549 0.48827 41.9976 0.734341 41.4476C0.835664 41.187 0.965937 40.9482 1.12516 40.7311C1.71862 40.5863 2.36275 40.4561 3.05754 40.3403C4.62081 40.0797 6.00315 39.9205 7.20456 39.8626V39.2112C7.20456 37.6045 7.00915 36.4972 6.61833 35.8893C6.22751 35.2813 5.62681 34.9774 4.81622 34.9774C4.51225 34.9774 4.25171 35.0135 4.03459 35.0859L3.73062 35.1945V38.4513L3.44836 38.5164C3.21676 38.5454 3.02135 38.5599 2.86213 38.5599C2.36999 38.5599 1.97628 38.4108 1.68099 38.1126C1.38281 37.8173 1.23372 37.4236 1.23372 36.9314C1.23372 36.2656 1.57098 35.7011 2.24551 35.2379C2.91713 34.7747 3.91879 34.5431 5.25047 34.5431C6.3795 34.5431 7.35365 34.7414 8.17292 35.138C8.9893 35.5375 9.61171 36.0876 10.0402 36.7881C10.4657 37.4916 10.6785 38.2993 10.6785 39.2112V45.0735L11.9812 45.3992V45.7249H10.0271C9.15865 45.7249 8.48557 45.4571 8.00791 44.9215C7.80526 44.7044 7.64604 44.4294 7.53024 44.0965C7.32759 44.4583 7.08876 44.784 6.81374 45.0735C6.16238 45.7249 5.35179 46.0505 4.38198 46.0505ZM5.25047 45.2906C5.78603 45.2906 6.27094 45.0011 6.70518 44.4221C6.8644 44.205 7.03086 43.9155 7.20456 43.5537V40.4054C6.53872 40.4054 5.90183 40.4416 5.29389 40.514C4.84517 40.5718 4.5412 40.608 4.38198 40.6225C4.30961 40.7817 4.23723 40.9989 4.16486 41.2739C4.02011 41.8239 3.94774 42.3667 3.94774 42.9023C3.94774 43.7129 4.07077 44.3136 4.31684 44.7044C4.56291 45.0952 4.87412 45.2906 5.25047 45.2906ZM18.9291 46.0505C17.9738 46.0505 17.1444 45.8768 16.4409 45.5295C15.7403 45.1821 15.2019 44.7044 14.8255 44.0965C14.4492 43.4885 14.261 42.801 14.261 42.0338V35.4116H12.7412V34.8688H14.261V33.7832C14.261 32.4805 14.9124 31.8291 16.2151 31.8291H17.7349V34.8688H20.7746V35.4116H17.7349V42.0338C17.7349 43.3655 17.8725 44.2774 18.1475 44.7695C18.4225 45.2617 18.8278 45.5077 19.3634 45.5077C19.8844 45.5077 20.3404 45.2544 20.7312 44.7478C21.122 44.2412 21.3174 43.5537 21.3174 42.6852H21.8603C21.8603 43.7563 21.5925 44.5843 21.0569 45.169C20.5213 45.7567 19.8121 46.0505 18.9291 46.0505ZM23.0544 45.7249V45.3992L24.3571 45.0735V35.5202L23.0544 35.1945V34.8688H25.0085C25.8625 34.8688 26.5356 35.1438 27.0277 35.6939C27.2159 35.911 27.3751 36.1788 27.5054 36.4972C27.7225 36.0919 27.9527 35.7662 28.1959 35.5202C28.8472 34.8688 29.5941 34.5431 30.4366 34.5431C31.2761 34.5431 32.0128 34.7269 32.6468 35.0946C33.2866 35.4652 33.7802 35.9689 34.1276 36.6058C34.3447 36.186 34.5749 35.8458 34.8181 35.5853C35.4868 34.8905 36.2337 34.5431 37.0588 34.5431C37.8259 34.5431 38.5164 34.7023 39.1301 35.0208C39.7467 35.3392 40.2244 35.7735 40.5631 36.3235C40.9047 36.8735 41.0755 37.4743 41.0755 38.1256V45.0735L42.3782 45.3992V45.7249H39.5556C38.2529 45.7249 37.6016 45.0735 37.6016 43.7708V38.1256C37.6016 37.1848 37.4568 36.4784 37.1673 36.0065C36.8778 35.5375 36.5521 35.303 36.1903 35.303C35.7705 35.303 35.3435 35.5925 34.9093 36.1715C34.7356 36.4465 34.5836 36.736 34.4533 37.04V45.0735L35.756 45.3992V45.7249H29.6766V45.3992L30.9794 45.0735V38.1256C30.9794 37.1848 30.8346 36.4784 30.5451 36.0065C30.2556 35.5375 29.9299 35.303 29.5681 35.303C29.1483 35.303 28.7213 35.5925 28.287 36.1715C28.1134 36.4465 27.9614 36.736 27.8311 37.04V45.0735L29.1338 45.3992V45.7249H23.0544ZM47.9105 46.0505C46.6222 46.0505 45.6307 45.7755 44.9359 45.2255C44.2411 44.6754 43.8937 43.9734 43.8937 43.1194C43.8937 42.5549 44.0168 41.9976 44.2628 41.4476C44.3642 41.187 44.4944 40.9482 44.6537 40.7311C45.2471 40.5863 45.8913 40.4561 46.586 40.3403C48.1493 40.0797 49.5317 39.9205 50.7331 39.8626V39.2112C50.7331 37.6045 50.5376 36.4972 50.1468 35.8893C49.756 35.2813 49.1553 34.9774 48.3447 34.9774C48.0408 34.9774 47.7802 35.0135 47.5631 35.0859L47.2591 35.1945V38.4513L46.9769 38.5164C46.7453 38.5454 46.5499 38.5599 46.3906 38.5599C45.8985 38.5599 45.5048 38.4108 45.2095 38.1126C44.9113 37.8173 44.7622 37.4236 44.7622 36.9314C44.7622 36.2656 45.0995 35.7011 45.774 35.2379C46.4456 34.7747 47.4473 34.5431 48.779 34.5431C49.908 34.5431 50.8821 34.7414 51.7014 35.138C52.5178 35.5375 53.1402 36.0876 53.5687 36.7881C53.9942 37.4916 54.207 38.2993 54.207 39.2112V45.0735L55.5097 45.3992V45.7249H53.5556C52.6871 45.7249 52.0141 45.4571 51.5364 44.9215C51.3338 44.7044 51.1745 44.4294 51.0587 44.0965C50.8561 44.4583 50.6173 44.784 50.3422 45.0735C49.6909 45.7249 48.8803 46.0505 47.9105 46.0505ZM48.779 45.2906C49.3145 45.2906 49.7994 45.0011 50.2337 44.4221C50.3929 44.205 50.5594 43.9155 50.7331 43.5537V40.4054C50.0672 40.4054 49.4303 40.4416 48.8224 40.514C48.3737 40.5718 48.0697 40.608 47.9105 40.6225C47.8381 40.7817 47.7657 40.9989 47.6934 41.2739C47.5486 41.8239 47.4762 42.3667 47.4762 42.9023C47.4762 43.7129 47.5993 44.3136 47.8453 44.7044C48.0914 45.0952 48.4026 45.2906 48.779 45.2906ZM56.8125 45.7249V45.3992L58.1152 45.0735V35.5202L56.8125 35.1945V34.8688H58.7666C59.6206 34.8688 60.2936 35.1438 60.7858 35.6939C60.9739 35.911 61.1332 36.1788 61.2635 36.4972C61.4661 36.1209 61.7049 35.7952 61.9799 35.5202C62.6313 34.8688 63.4419 34.5431 64.4117 34.5431C65.2223 34.5431 65.9504 34.7125 66.5959 35.0512C67.2386 35.3928 67.7409 35.8386 68.1028 36.3886C68.4646 36.9387 68.6456 37.5177 68.6456 38.1256V45.0735L69.9483 45.3992V45.7249H67.1257C65.823 45.7249 65.1716 45.0735 65.1716 43.7708V38.1256C65.1716 37.2137 65.0095 36.5146 64.6853 36.0282C64.3581 35.5448 63.9775 35.303 63.5432 35.303C62.9932 35.303 62.501 35.5925 62.0668 36.1715C61.8786 36.4176 61.7194 36.7071 61.5891 37.04V45.0735L62.8919 45.3992V45.7249H56.8125ZM71.251 45.7249V45.3992L72.5538 45.0735V35.5202L71.251 35.1945V34.8688H74.0736C75.3763 34.8688 76.0277 35.5202 76.0277 36.8229V45.0735L77.3304 45.3992V45.7249H71.251ZM74.0736 33.5661C73.6394 33.5661 73.2775 33.4213 72.988 33.1318C72.6985 32.8423 72.5538 32.4805 72.5538 32.0462C72.5538 31.612 72.6985 31.2501 72.988 30.9606C73.2775 30.6711 73.6394 30.5264 74.0736 30.5264C74.5079 30.5264 74.8697 30.6711 75.1592 30.9606C75.4487 31.2501 75.5935 31.612 75.5935 32.0462C75.5935 32.4805 75.4487 32.8423 75.1592 33.1318C74.8697 33.4213 74.5079 33.5661 74.0736 33.5661ZM78.6332 45.7249V45.3992L79.9359 45.0735V35.5202L78.6332 35.1945V34.8688H80.5873C81.4413 34.8688 82.1143 35.1438 82.6065 35.6939C82.7947 35.911 82.9539 36.1788 83.0842 36.4972C83.3013 36.1788 83.5691 35.8893 83.8875 35.6287C84.6112 35.0497 85.4218 34.7602 86.3193 34.7602C87.0864 34.7602 87.6611 34.9368 88.0432 35.29C88.4282 35.6461 88.6207 36.157 88.6207 36.8229C88.6207 37.315 88.4717 37.7087 88.1735 38.004C87.8782 38.3022 87.4845 38.4513 86.9923 38.4513C86.7897 38.4513 86.587 38.4368 86.3844 38.4079L86.1238 38.3427V35.303C85.3856 35.303 84.7126 35.5925 84.1046 36.1715C83.8151 36.461 83.5835 36.7505 83.4098 37.04V45.0735L84.7126 45.3992V45.7249H78.6332ZM96.7585 46.0505C95.7886 46.0505 94.9781 45.7249 94.3267 45.0735C94.0517 44.784 93.8128 44.4583 93.6102 44.0965C93.5089 44.4149 93.3352 44.7044 93.0891 44.9649C92.5391 45.5439 91.7357 45.8334 90.6791 45.8334H90.4619V31.1777L89.1592 30.852V30.5264H91.9818C93.2845 30.5264 93.9359 31.1777 93.9359 32.4805V35.4116C94.1675 35.2234 94.3918 35.0787 94.609 34.9774C95.13 34.6879 95.738 34.5431 96.4328 34.5431C97.8947 34.5431 99.057 35.0381 99.9197 36.0282C100.78 37.0212 101.209 38.4441 101.209 40.2968C101.209 41.5272 101.014 42.5723 100.623 43.4321C100.232 44.2948 99.7041 44.9461 99.0382 45.3862C98.3724 45.8291 97.6125 46.0505 96.7585 46.0505ZM95.89 45.2906C96.3532 45.2906 96.7411 44.9244 97.0537 44.192C97.3635 43.4625 97.5184 42.1641 97.5184 40.2968C97.5184 38.3427 97.349 37.0038 97.0103 36.2801C96.6687 35.5563 96.1867 35.1945 95.5643 35.1945C95.1879 35.1945 94.8044 35.3392 94.4135 35.6287C94.2977 35.7156 94.1385 35.8603 93.9359 36.063V43.5537C94.0661 43.8866 94.2254 44.1761 94.4135 44.4221C94.8478 45.0011 95.3399 45.2906 95.89 45.2906ZM102.946 45.7249V45.3992L104.249 45.0735V31.1777L102.946 30.852V30.5264H105.769C107.072 30.5264 107.723 31.1777 107.723 32.4805V35.9544C107.94 35.6649 108.165 35.4333 108.396 35.2596C109.019 34.7819 109.735 34.5431 110.546 34.5431C111.356 34.5431 112.083 34.7125 112.726 35.0512C113.371 35.3928 113.875 35.8386 114.237 36.3886C114.599 36.9387 114.78 37.5177 114.78 38.1256V45.0735L116.082 45.3992V45.7249H113.26C111.957 45.7249 111.306 45.0735 111.306 43.7708V38.1256C111.306 37.2137 111.143 36.5146 110.819 36.0282C110.492 35.5448 110.111 35.303 109.677 35.303C109.127 35.303 108.635 35.5925 108.201 36.1715C108.013 36.4176 107.853 36.7071 107.723 37.04V45.0735L109.026 45.3992V45.7249H102.946ZM121.619 46.0505C120.331 46.0505 119.339 45.7755 118.644 45.2255C117.95 44.6754 117.602 43.9734 117.602 43.1194C117.602 42.5549 117.725 41.9976 117.971 41.4476C118.073 41.187 118.203 40.9482 118.362 40.7311C118.956 40.5863 119.6 40.4561 120.294 40.3403C121.858 40.0797 123.24 39.9205 124.441 39.8626V39.2112C124.441 37.6045 124.246 36.4972 123.855 35.8893C123.464 35.2813 122.864 34.9774 122.053 34.9774C121.749 34.9774 121.489 35.0135 121.271 35.0859L120.967 35.1945V38.4513L120.685 38.5164C120.454 38.5454 120.258 38.5599 120.099 38.5599C119.607 38.5599 119.212 38.4108 118.914 38.1126C118.618 37.8173 118.471 37.4236 118.471 36.9314C118.471 36.2656 118.806 35.7011 119.478 35.2379C120.153 34.7747 121.156 34.5431 122.487 34.5431C123.616 34.5431 124.589 34.7414 125.405 35.138C126.225 35.5375 126.847 36.0876 127.273 36.7881C127.701 37.4916 127.915 38.2993 127.915 39.2112V45.0735L129.218 45.3992V45.7249H127.264C126.396 45.7249 125.722 45.4571 125.245 44.9215C125.042 44.7044 124.883 44.4294 124.767 44.0965C124.564 44.4583 124.326 44.784 124.051 45.0735C123.399 45.7249 122.589 46.0505 121.619 46.0505ZM122.487 45.2906C123.023 45.2906 123.508 45.0011 123.942 44.4221C124.101 44.205 124.268 43.9155 124.441 43.5537V40.4054C123.776 40.4054 123.139 40.4416 122.531 40.514C122.082 40.5718 121.778 40.608 121.619 40.6225C121.546 40.7817 121.474 40.9989 121.402 41.2739C121.257 41.8239 121.185 42.3667 121.185 42.9023C121.185 43.7129 121.308 44.3136 121.554 44.7044C121.8 45.0952 122.111 45.2906 122.487 45.2906ZM130.521 45.7249V45.3992L131.824 45.0735V35.5202L130.521 35.1945V34.8688H132.475C133.329 34.8688 134.002 35.1438 134.494 35.6939C134.682 35.911 134.842 36.1788 134.972 36.4972C135.189 36.1788 135.457 35.8893 135.775 35.6287C136.499 35.0497 137.309 34.7602 138.207 34.7602C138.974 34.7602 139.549 34.9368 139.931 35.29C140.316 35.6461 140.508 36.157 140.508 36.8229C140.508 37.315 140.359 37.7087 140.061 38.004C139.766 38.3022 139.372 38.4513 138.88 38.4513C138.677 38.4513 138.475 38.4368 138.272 38.4079L138.012 38.3427V35.303C137.273 35.303 136.6 35.5925 135.992 36.1715C135.703 36.461 135.471 36.7505 135.298 37.04V45.0735L136.6 45.3992V45.7249H130.521Z" fill="black"/>
</g>
</g>
</g>
</g>
<g clipPath="url(#clip5_220_1622)">
<g clipPath="url(#clip6_220_1622)">
<path d="M61.6144 20.7634C61.5189 20.7634 61.4414 20.6859 61.4414 20.5904V9.19082C61.4414 8.51224 61.9854 7.95996 62.6543 7.95996H67.6701C67.7656 7.95996 67.8431 8.03747 67.8431 8.13298C67.8431 8.22849 67.7656 8.306 67.6701 8.306H62.6543C62.1764 8.306 61.7874 8.70256 61.7874 9.19082V20.5904C61.7874 20.6859 61.7099 20.7634 61.6144 20.7634Z" fill="black"/>
<path d="M79.26 20.7634C79.1644 20.7634 79.0869 20.6859 79.0869 20.5904V9.19082C79.0869 8.70256 78.698 8.306 78.2201 8.306H73.2043C73.1088 8.306 73.0312 8.22849 73.0312 8.13298C73.0312 8.03747 73.1088 7.95996 73.2043 7.95996H78.2201C78.889 7.95996 79.433 8.51224 79.433 9.19082V20.5904C79.433 20.6859 79.3555 20.7634 79.26 20.7634Z" fill="black"/>
<path d="M78.2223 11.0743C78.1268 11.0743 78.0493 10.9968 78.0493 10.9013V9.34409H73.7238C73.6283 9.34409 73.5508 9.26657 73.5508 9.17107C73.5508 9.07556 73.6283 8.99805 73.7238 8.99805H78.2223C78.3178 8.99805 78.3953 9.07556 78.3953 9.17107V10.9013C78.3953 10.9968 78.3178 11.0743 78.2223 11.0743Z" fill="black"/>
<path d="M78.2233 19.7253H62.6515C62.556 19.7253 62.4785 19.6477 62.4785 19.5522V9.17107C62.4785 9.07556 62.556 8.99805 62.6515 8.99805H67.15C67.2455 8.99805 67.3231 9.07556 67.3231 9.17107C67.3231 9.26657 67.2455 9.34409 67.15 9.34409H62.8246V19.3792H78.0503V15.7458C78.0503 15.6503 78.1278 15.5728 78.2233 15.5728C78.3188 15.5728 78.3963 15.6503 78.3963 15.7458V19.5522C78.3963 19.6477 78.3188 19.7253 78.2233 19.7253Z" fill="black"/>
<path d="M78.2238 14.1895C78.1283 14.1895 78.0508 14.112 78.0508 14.0165V12.2863C78.0508 12.1908 78.1283 12.1133 78.2238 12.1133C78.3193 12.1133 78.3968 12.1908 78.3968 12.2863V14.0165C78.3968 14.112 78.3193 14.1895 78.2238 14.1895Z" fill="black"/>
<path d="M79.9549 21.8021H60.9217C60.2539 21.8021 59.7109 21.2592 59.7109 20.5917C59.7109 20.4962 59.7885 20.4187 59.884 20.4187L68.5349 20.418V20.764H60.0743C60.1546 21.1585 60.5041 21.4561 60.9214 21.4561H79.9546C80.3719 21.4561 80.7214 21.1588 80.8017 20.7647L72.3414 20.764C72.2459 20.764 72.1683 20.6865 72.1683 20.591C72.1683 20.4955 72.2459 20.418 72.3414 20.418H80.9923C81.0878 20.418 81.1654 20.4955 81.1654 20.591C81.1654 21.2588 80.6224 21.8021 79.9549 21.8021Z" fill="black"/>
<path d="M71.9928 21.11H68.8784C68.5923 21.11 68.3594 20.8772 68.3594 20.591C68.3594 20.4955 68.4369 20.418 68.5324 20.418C68.6279 20.418 68.7054 20.4955 68.7054 20.591C68.7054 20.6861 68.7829 20.764 68.8784 20.764H71.9928C72.0879 20.764 72.1658 20.6861 72.1658 20.591C72.1658 20.4955 72.2433 20.418 72.3388 20.418C72.4343 20.418 72.5118 20.4955 72.5118 20.591C72.5118 20.8772 72.279 21.11 71.9928 21.11Z" fill="black"/>
<path d="M74.4171 10.7284C74.3988 10.7284 74.3804 10.7253 74.3624 10.7198L71.2481 9.68166C71.1574 9.65121 71.1086 9.55328 71.1387 9.46262C71.1692 9.37195 71.2674 9.32386 71.3578 9.35327L74.0756 10.2592L70.5037 3.11557H70.3716L66.7997 10.2592L69.5179 9.35327C69.6089 9.32282 69.7065 9.3723 69.7366 9.46262C69.7667 9.55293 69.7179 9.65121 69.6272 9.68166L66.5129 10.7198C66.4464 10.7409 66.3731 10.7222 66.3274 10.6689C66.2817 10.6163 66.272 10.5409 66.3035 10.4782L70.1099 2.86538C70.1394 2.80656 70.1992 2.76953 70.2646 2.76953H70.6107C70.6761 2.76953 70.7359 2.80656 70.7653 2.86504L74.5718 10.4779C74.6033 10.5405 74.5932 10.6156 74.5479 10.6686C74.5143 10.7073 74.4666 10.7284 74.4171 10.7284Z" fill="black"/>
<path d="M64.728 3.46097C64.4419 3.46097 64.209 3.22808 64.209 2.94191C64.209 2.65574 64.4419 2.42285 64.728 2.42285C65.0142 2.42285 65.2471 2.65574 65.2471 2.94191C65.2471 3.22808 65.0142 3.46097 64.728 3.46097ZM64.728 2.76889C64.6325 2.76889 64.555 2.84675 64.555 2.94191C64.555 3.03707 64.6325 3.11493 64.728 3.11493C64.8235 3.11493 64.9011 3.03707 64.9011 2.94191C64.9011 2.84675 64.8235 2.76889 64.728 2.76889Z" fill="black"/>
<path d="M67.3229 5.19177C66.9413 5.19177 66.6309 4.88138 66.6309 4.4997C66.6309 4.11801 66.9413 3.80762 67.3229 3.80762C67.7046 3.80762 68.015 4.11801 68.015 4.4997C68.015 4.88138 67.7046 5.19177 67.3229 5.19177ZM67.3229 4.15366C67.1323 4.15366 66.9769 4.30868 66.9769 4.4997C66.9769 4.69071 67.1323 4.84573 67.3229 4.84573C67.5136 4.84573 67.669 4.69071 67.669 4.4997C67.669 4.30868 67.5136 4.15366 67.3229 4.15366Z" fill="black"/>
<path d="M73.5515 5.19177C73.1698 5.19177 72.8594 4.88138 72.8594 4.4997C72.8594 4.11801 73.1698 3.80762 73.5515 3.80762C73.9331 3.80762 74.2435 4.11801 74.2435 4.4997C74.2435 4.88138 73.9331 5.19177 73.5515 5.19177ZM73.5515 4.15366C73.3604 4.15366 73.2054 4.30868 73.2054 4.4997C73.2054 4.69071 73.3604 4.84573 73.5515 4.84573C73.7425 4.84573 73.8975 4.69071 73.8975 4.4997C73.8975 4.30868 73.7425 4.15366 73.5515 4.15366Z" fill="black"/>
<path d="M68.187 1.3848C67.9009 1.3848 67.668 1.15191 67.668 0.865738C67.668 0.579564 67.9009 0.34668 68.187 0.34668C68.4732 0.34668 68.7061 0.579564 68.7061 0.865738C68.7061 1.15191 68.4732 1.3848 68.187 1.3848ZM68.187 0.692719C68.0915 0.692719 68.014 0.770577 68.014 0.865738C68.014 0.960899 68.0915 1.03876 68.187 1.03876C68.2825 1.03876 68.36 0.960899 68.36 0.865738C68.36 0.770577 68.2825 0.692719 68.187 0.692719Z" fill="black"/>
<path d="M72.6851 1.3848C72.3989 1.3848 72.166 1.15191 72.166 0.865738C72.166 0.579564 72.3989 0.34668 72.6851 0.34668C72.9712 0.34668 73.2041 0.579564 73.2041 0.865738C73.2041 1.15191 72.9712 1.3848 72.6851 1.3848ZM72.6851 0.692719C72.5899 0.692719 72.5121 0.770577 72.5121 0.865738C72.5121 0.960899 72.5899 1.03876 72.6851 1.03876C72.7802 1.03876 72.8581 0.960899 72.8581 0.865738C72.8581 0.770577 72.7802 0.692719 72.6851 0.692719Z" fill="black"/>
<path d="M76.4917 7.26761C76.2055 7.26761 75.9727 7.03472 75.9727 6.74855C75.9727 6.46238 76.2055 6.22949 76.4917 6.22949C76.7779 6.22949 77.0108 6.46238 77.0108 6.74855C77.0108 7.03472 76.7779 7.26761 76.4917 7.26761ZM76.4917 6.57553C76.3966 6.57553 76.3187 6.65339 76.3187 6.74855C76.3187 6.84371 76.3966 6.92157 76.4917 6.92157C76.5869 6.92157 76.6647 6.84371 76.6647 6.74855C76.6647 6.65339 76.5869 6.57553 76.4917 6.57553Z" fill="black"/>
<path d="M76.146 3.46097C75.8598 3.46097 75.627 3.22808 75.627 2.94191C75.627 2.65574 75.8598 2.42285 76.146 2.42285C76.4322 2.42285 76.6651 2.65574 76.6651 2.94191C76.6651 3.22808 76.4322 3.46097 76.146 3.46097ZM76.146 2.76889C76.0509 2.76889 75.973 2.84675 75.973 2.94191C75.973 3.03707 76.0509 3.11493 76.146 3.11493C76.2412 3.11493 76.319 3.03707 76.319 2.94191C76.319 2.84675 76.2412 2.76889 76.146 2.76889Z" fill="black"/>
<path d="M64.3804 7.26761C64.0942 7.26761 63.8613 7.03472 63.8613 6.74855C63.8613 6.46238 64.0942 6.22949 64.3804 6.22949C64.6666 6.22949 64.8994 6.46238 64.8994 6.74855C64.8994 7.03472 64.6666 7.26761 64.3804 7.26761ZM64.3804 6.57553C64.2849 6.57553 64.2074 6.65339 64.2074 6.74855C64.2074 6.84371 64.2849 6.92157 64.3804 6.92157C64.4759 6.92157 64.5534 6.84371 64.5534 6.74855C64.5534 6.65339 64.4759 6.57553 64.3804 6.57553Z" fill="black"/>
<path d="M70.6095 10.7284H70.2634C70.2056 10.7284 70.1517 10.6994 70.1195 10.6513L69.4274 9.61314C69.4049 9.57958 69.3952 9.53909 69.3994 9.49895L70.0915 2.92421C70.1005 2.83632 70.1748 2.76953 70.2634 2.76953H70.6095C70.6981 2.76953 70.7725 2.83632 70.7815 2.92421L71.4735 9.49895C71.478 9.53909 71.4677 9.57958 71.4455 9.61314L70.7534 10.6513C70.7212 10.6994 70.6673 10.7284 70.6095 10.7284ZM70.3562 10.3824H70.5171L71.123 9.47334L70.4538 3.11557H70.4192L69.7499 9.47334L70.3562 10.3824Z" fill="black"/>
<path d="M69.2277 14.881C69.1322 14.881 69.0547 14.8035 69.0547 14.708V10.9015C69.0547 10.806 69.1322 10.7285 69.2277 10.7285C69.3232 10.7285 69.4007 10.806 69.4007 10.9015V14.708C69.4007 14.8035 69.3232 14.881 69.2277 14.881Z" fill="black"/>
<path d="M71.6476 14.881C71.5521 14.881 71.4746 14.8035 71.4746 14.708V10.9015C71.4746 10.806 71.5521 10.7285 71.6476 10.7285C71.7431 10.7285 71.8206 10.806 71.8206 10.9015V14.708C71.8206 14.8035 71.7431 14.881 71.6476 14.881Z" fill="black"/>
<path d="M74.4172 13.1501C74.3217 13.1501 74.2441 13.0726 74.2441 12.9771V11.5929C74.2441 11.4974 74.3217 11.4199 74.4172 11.4199C74.5127 11.4199 74.5902 11.4974 74.5902 11.5929V12.9771C74.5902 13.0726 74.5127 13.1501 74.4172 13.1501Z" fill="black"/>
<path d="M71.6476 16.9574C71.5521 16.9574 71.4746 16.8799 71.4746 16.7844V15.7463C71.4746 15.6508 71.5521 15.5732 71.6476 15.5732C71.7431 15.5732 71.8206 15.6508 71.8206 15.7463V16.7844C71.8206 16.8799 71.7431 16.9574 71.6476 16.9574Z" fill="black"/>
<path d="M74.4172 14.8809C74.3217 14.8809 74.2441 14.8034 74.2441 14.7079V14.0158C74.2441 13.9203 74.3217 13.8428 74.4172 13.8428C74.5127 13.8428 74.5902 13.9203 74.5902 14.0158V14.7079C74.5902 14.8034 74.5127 14.8809 74.4172 14.8809Z" fill="black"/>
<path d="M66.4582 14.8809C66.3627 14.8809 66.2852 14.8034 66.2852 14.7079V14.0158C66.2852 13.9203 66.3627 13.8428 66.4582 13.8428C66.5537 13.8428 66.6312 13.9203 66.6312 14.0158V14.7079C66.6312 14.8034 66.5537 14.8809 66.4582 14.8809Z" fill="black"/>
<path d="M69.2277 16.9574C69.1322 16.9574 69.0547 16.8799 69.0547 16.7844V15.7463C69.0547 15.6508 69.1322 15.5732 69.2277 15.5732C69.3232 15.5732 69.4007 15.6508 69.4007 15.7463V16.7844C69.4007 16.8799 69.3232 16.9574 69.2277 16.9574Z" fill="black"/>
<path d="M66.4582 13.1501C66.3627 13.1501 66.2852 13.0726 66.2852 12.9771V11.5929C66.2852 11.4974 66.3627 11.4199 66.4582 11.4199C66.5537 11.4199 66.6312 11.4974 66.6312 11.5929V12.9771C66.6312 13.0726 66.5537 13.1501 66.4582 13.1501Z" fill="black"/>
</g>
</g>
<path d="M113.749 20.0459H84.0039V21.4459H113.749V20.0459Z" fill="black"/>
<path d="M56.8797 20.0459H27.1348V21.4459H56.8797V20.0459Z" fill="black"/>
</g>
<defs>
<clipPath id="clip0_220_1622">
<rect width="140.853" height="45.7084" fill="white" transform="translate(0.0136719 0.344727)"/>
</clipPath>
<clipPath id="clip1_220_1622">
<rect width="140.152" height="15.5242" fill="white" transform="translate(0.365234 30.5283)"/>
</clipPath>
<clipPath id="clip2_220_1622">
<rect width="140.152" height="15.5242" fill="white" transform="translate(0.363281 30.5273)"/>
</clipPath>
<clipPath id="clip3_220_1622">
<rect width="140.152" height="15.5242" fill="white" transform="translate(0.363281 30.5264)"/>
</clipPath>
<clipPath id="clip4_220_1622">
<rect width="140.152" height="15.5242" fill="white" transform="translate(0.361328 30.5264)"/>
</clipPath>
<clipPath id="clip5_220_1622">
<rect width="27.124" height="21.4544" fill="white" transform="translate(56.8789 0.345703)"/>
</clipPath>
<clipPath id="clip6_220_1622">
<rect width="21.4544" height="21.4544" fill="white" transform="translate(59.7109 0.34668)"/>
</clipPath>
</defs>
</svg>
