<svg width="142" height="46" viewBox="0 0 142 46" fill="none" xmlns="http://www.w3.org/2000/svg">
<g clip-path="url(#clip0_246_1364)">
<g clip-path="url(#clip1_246_1364)">
<g clip-path="url(#clip2_246_1364)">
<path d="M140.456 25.4648H2.42025C1.64234 25.4648 1.01172 25.7782 1.01172 26.1648C1.01172 26.5514 1.64234 26.8648 2.42025 26.8648H140.456C141.234 26.8648 141.864 26.5514 141.864 26.1648C141.864 25.7782 141.234 25.4648 140.456 25.4648Z" fill="black"/>
<g clip-path="url(#clip3_246_1364)">
<g clip-path="url(#clip4_246_1364)">
<g clip-path="url(#clip5_246_1364)">
<g clip-path="url(#clip6_246_1364)">
<path d="M5.38393 46.0505C4.09568 46.0505 3.10416 45.7755 2.40937 45.2255C1.71458 44.6754 1.36719 43.9734 1.36719 43.1194C1.36719 42.5549 1.49022 41.9976 1.73629 41.4476C1.83762 41.187 1.96789 40.9482 2.12711 40.7311C2.72058 40.5863 3.3647 40.4561 4.05949 40.3403C5.62277 40.0797 7.00511 39.9205 8.20651 39.8626V39.2112C8.20651 37.6045 8.0111 36.4972 7.62028 35.8893C7.22947 35.2813 6.62876 34.9774 5.81818 34.9774C5.51421 34.9774 5.25366 35.0135 5.03654 35.0859L4.73257 35.1945V38.4513L4.45031 38.5164C4.21872 38.5454 4.02331 38.5599 3.86408 38.5599C3.37194 38.5599 2.97823 38.4108 2.68294 38.1126C2.38476 37.8173 2.23567 37.4236 2.23567 36.9314C2.23567 36.2656 2.57293 35.7011 3.24746 35.2379C3.91909 34.7747 4.92074 34.5431 6.25242 34.5431C7.38145 34.5431 8.3556 34.7414 9.17487 35.138C9.99125 35.5375 10.6137 36.0876 11.0421 36.7881C11.4677 37.4916 11.6805 38.2993 11.6805 39.2112V45.0735L12.9832 45.3992V45.7249H11.0291C10.1606 45.7249 9.48753 45.4571 9.00986 44.9215C8.80721 44.7044 8.64799 44.4294 8.53219 44.0965C8.32955 44.4583 8.09071 44.784 7.81569 45.0735C7.16433 45.7249 6.35374 46.0505 5.38393 46.0505ZM6.25242 45.2906C6.78799 45.2906 7.27289 45.0011 7.70713 44.4221C7.86635 44.205 8.03281 43.9155 8.20651 43.5537V40.4054C7.54067 40.4054 6.90378 40.4416 6.29584 40.514C5.84713 40.5718 5.54316 40.608 5.38393 40.6225C5.31156 40.7817 5.23919 40.9989 5.16681 41.2739C5.02206 41.8239 4.94969 42.3667 4.94969 42.9023C4.94969 43.7129 5.07273 44.3136 5.3188 44.7044C5.56487 45.0952 5.87608 45.2906 6.25242 45.2906ZM19.9311 46.0505C18.9757 46.0505 18.1463 45.8768 17.4429 45.5295C16.7423 45.1821 16.2038 44.7044 15.8275 44.0965C15.4511 43.4885 15.263 42.801 15.263 42.0338V35.4116H13.7431V34.8688H15.263V33.7832C15.263 32.4805 15.9143 31.8291 17.2171 31.8291H18.7369V34.8688H21.7766V35.4116H18.7369V42.0338C18.7369 43.3655 18.8744 44.2774 19.1494 44.7695C19.4245 45.2617 19.8297 45.5077 20.3653 45.5077C20.8864 45.5077 21.3424 45.2544 21.7332 44.7478C22.124 44.2412 22.3194 43.5537 22.3194 42.6852H22.8622C22.8622 43.7563 22.5944 44.5843 22.0589 45.169C21.5233 45.7567 20.814 46.0505 19.9311 46.0505ZM24.0564 45.7249V45.3992L25.3591 45.0735V35.5202L24.0564 35.1945V34.8688H26.0105C26.8645 34.8688 27.5376 35.1438 28.0297 35.6939C28.2179 35.911 28.3771 36.1788 28.5074 36.4972C28.7245 36.0919 28.9546 35.7662 29.1978 35.5202C29.8492 34.8688 30.5961 34.5431 31.4385 34.5431C32.278 34.5431 33.0148 34.7269 33.6488 35.0946C34.2886 35.4652 34.7822 35.9689 35.1296 36.6058C35.3467 36.186 35.5768 35.8458 35.82 35.5853C36.4887 34.8905 37.2356 34.5431 38.0607 34.5431C38.8279 34.5431 39.5183 34.7023 40.132 35.0208C40.7487 35.3392 41.2263 35.7735 41.565 36.3235C41.9067 36.8735 42.0774 37.4743 42.0774 38.1256V45.0735L43.3802 45.3992V45.7249H40.5576C39.2549 45.7249 38.6035 45.0735 38.6035 43.7708V38.1256C38.6035 37.1848 38.4588 36.4784 38.1693 36.0065C37.8798 35.5375 37.5541 35.303 37.1922 35.303C36.7725 35.303 36.3454 35.5925 35.9112 36.1715C35.7375 36.4465 35.5855 36.736 35.4552 37.04V45.0735L36.758 45.3992V45.7249H30.6786V45.3992L31.9813 45.0735V38.1256C31.9813 37.1848 31.8366 36.4784 31.5471 36.0065C31.2576 35.5375 30.9319 35.303 30.57 35.303C30.1502 35.303 29.7232 35.5925 29.289 36.1715C29.1153 36.4465 28.9633 36.736 28.833 37.04V45.0735L30.1358 45.3992V45.7249H24.0564ZM48.9124 46.0505C47.6242 46.0505 46.6327 45.7755 45.9379 45.2255C45.2431 44.6754 44.8957 43.9734 44.8957 43.1194C44.8957 42.5549 45.0187 41.9976 45.2648 41.4476C45.3661 41.187 45.4964 40.9482 45.6556 40.7311C46.2491 40.5863 46.8932 40.4561 47.588 40.3403C49.1513 40.0797 50.5336 39.9205 51.735 39.8626V39.2112C51.735 37.6045 51.5396 36.4972 51.1488 35.8893C50.758 35.2813 50.1573 34.9774 49.3467 34.9774C49.0427 34.9774 48.7822 35.0135 48.565 35.0859L48.2611 35.1945V38.4513L47.9788 38.5164C47.7472 38.5454 47.5518 38.5599 47.3926 38.5599C46.9004 38.5599 46.5067 38.4108 46.2114 38.1126C45.9133 37.8173 45.7642 37.4236 45.7642 36.9314C45.7642 36.2656 46.1014 35.7011 46.776 35.2379C47.4476 34.7747 48.4492 34.5431 49.7809 34.5431C50.91 34.5431 51.8841 34.7414 52.7034 35.138C53.5197 35.5375 54.1422 36.0876 54.5706 36.7881C54.9962 37.4916 55.209 38.2993 55.209 39.2112V45.0735L56.5117 45.3992V45.7249H54.5576C53.6891 45.7249 53.016 45.4571 52.5384 44.9215C52.3357 44.7044 52.1765 44.4294 52.0607 44.0965C51.858 44.4583 51.6192 44.784 51.3442 45.0735C50.6928 45.7249 49.8822 46.0505 48.9124 46.0505ZM49.7809 45.2906C50.3165 45.2906 50.8014 45.0011 51.2356 44.4221C51.3949 44.205 51.5613 43.9155 51.735 43.5537V40.4054C51.0692 40.4054 50.4323 40.4416 49.8243 40.514C49.3756 40.5718 49.0717 40.608 48.9124 40.6225C48.8401 40.7817 48.7677 40.9989 48.6953 41.2739C48.5506 41.8239 48.4782 42.3667 48.4782 42.9023C48.4782 43.7129 48.6012 44.3136 48.8473 44.7044C49.0934 45.0952 49.4046 45.2906 49.7809 45.2906ZM57.8144 45.7249V45.3992L59.1171 45.0735V35.5202L57.8144 35.1945V34.8688H59.7685C60.6225 34.8688 61.2956 35.1438 61.7877 35.6939C61.9759 35.911 62.1351 36.1788 62.2654 36.4972C62.468 36.1209 62.7069 35.7952 62.9819 35.5202C63.6333 34.8688 64.4439 34.5431 65.4137 34.5431C66.2243 34.5431 66.9523 34.7125 67.5979 35.0512C68.2406 35.3928 68.7429 35.8386 69.1047 36.3886C69.4666 36.9387 69.6475 37.5177 69.6475 38.1256V45.0735L70.9503 45.3992V45.7249H68.1277C66.825 45.7249 66.1736 45.0735 66.1736 43.7708V38.1256C66.1736 37.2137 66.0115 36.5146 65.6872 36.0282C65.3601 35.5448 64.9794 35.303 64.5452 35.303C63.9951 35.303 63.503 35.5925 63.0687 36.1715C62.8806 36.4176 62.7214 36.7071 62.5911 37.04V45.0735L63.8938 45.3992V45.7249H57.8144ZM72.253 45.7249V45.3992L73.5557 45.0735V35.5202L72.253 35.1945V34.8688H75.0756C76.3783 34.8688 77.0297 35.5202 77.0297 36.8229V45.0735L78.3324 45.3992V45.7249H72.253ZM75.0756 33.5661C74.6413 33.5661 74.2795 33.4213 73.99 33.1318C73.7005 32.8423 73.5557 32.4805 73.5557 32.0462C73.5557 31.612 73.7005 31.2501 73.99 30.9606C74.2795 30.6711 74.6413 30.5264 75.0756 30.5264C75.5098 30.5264 75.8717 30.6711 76.1612 30.9606C76.4507 31.2501 76.5954 31.612 76.5954 32.0462C76.5954 32.4805 76.4507 32.8423 76.1612 33.1318C75.8717 33.4213 75.5098 33.5661 75.0756 33.5661ZM79.6351 45.7249V45.3992L80.9378 45.0735V35.5202L79.6351 35.1945V34.8688H81.5892C82.4432 34.8688 83.1163 35.1438 83.6084 35.6939C83.7966 35.911 83.9558 36.1788 84.0861 36.4972C84.3032 36.1788 84.571 35.8893 84.8895 35.6287C85.6132 35.0497 86.4238 34.7602 87.3212 34.7602C88.0884 34.7602 88.663 34.9368 89.0452 35.29C89.4302 35.6461 89.6227 36.157 89.6227 36.8229C89.6227 37.315 89.4736 37.7087 89.1754 38.004C88.8801 38.3022 88.4864 38.4513 87.9943 38.4513C87.7916 38.4513 87.589 38.4368 87.3863 38.4079L87.1258 38.3427V35.303C86.3876 35.303 85.7145 35.5925 85.1066 36.1715C84.8171 36.461 84.5855 36.7505 84.4118 37.04V45.0735L85.7145 45.3992V45.7249H79.6351ZM97.7604 46.0505C96.7906 46.0505 95.98 45.7249 95.3287 45.0735C95.0536 44.784 94.8148 44.4583 94.6121 44.0965C94.5108 44.4149 94.3371 44.7044 94.0911 44.9649C93.541 45.5439 92.7377 45.8334 91.681 45.8334H91.4639V31.1777L90.1612 30.852V30.5264H92.9837C94.2865 30.5264 94.9378 31.1777 94.9378 32.4805V35.4116C95.1694 35.2234 95.3938 35.0787 95.6109 34.9774C96.132 34.6879 96.7399 34.5431 97.4347 34.5431C98.8967 34.5431 100.059 35.0381 100.922 36.0282C101.781 37.0212 102.211 38.4441 102.211 40.2968C102.211 41.5272 102.016 42.5723 101.625 43.4321C101.234 44.2948 100.706 44.9461 100.04 45.3862C99.3743 45.8291 98.6144 46.0505 97.7604 46.0505ZM96.8919 45.2906C97.3551 45.2906 97.743 44.9244 98.0557 44.192C98.3655 43.4625 98.5203 42.1641 98.5203 40.2968C98.5203 38.3427 98.351 37.0038 98.0123 36.2801C97.6707 35.5563 97.1887 35.1945 96.5662 35.1945C96.1899 35.1945 95.8063 35.3392 95.4155 35.6287C95.2997 35.7156 95.1405 35.8603 94.9378 36.063V43.5537C95.0681 43.8866 95.2273 44.1761 95.4155 44.4221C95.8497 45.0011 96.3419 45.2906 96.8919 45.2906ZM103.948 45.7249V45.3992L105.251 45.0735V31.1777L103.948 30.852V30.5264H106.771C108.074 30.5264 108.725 31.1777 108.725 32.4805V35.9544C108.942 35.6649 109.167 35.4333 109.398 35.2596C110.021 34.7819 110.737 34.5431 111.548 34.5431C112.358 34.5431 113.085 34.7125 113.728 35.0512C114.373 35.3928 114.877 35.8386 115.239 36.3886C115.601 36.9387 115.781 37.5177 115.781 38.1256V45.0735L117.084 45.3992V45.7249H114.262C112.959 45.7249 112.308 45.0735 112.308 43.7708V38.1256C112.308 37.2137 112.145 36.5146 111.821 36.0282C111.494 35.5448 111.113 35.303 110.679 35.303C110.129 35.303 109.637 35.5925 109.203 36.1715C109.015 36.4176 108.855 36.7071 108.725 37.04V45.0735L110.028 45.3992V45.7249H103.948ZM122.621 46.0505C121.333 46.0505 120.341 45.7755 119.646 45.2255C118.951 44.6754 118.604 43.9734 118.604 43.1194C118.604 42.5549 118.727 41.9976 118.973 41.4476C119.074 41.187 119.205 40.9482 119.364 40.7311C119.957 40.5863 120.602 40.4561 121.296 40.3403C122.86 40.0797 124.242 39.9205 125.443 39.8626V39.2112C125.443 37.6045 125.248 36.4972 124.857 35.8893C124.466 35.2813 123.866 34.9774 123.055 34.9774C122.751 34.9774 122.491 35.0135 122.273 35.0859L121.969 35.1945V38.4513L121.687 38.5164C121.456 38.5454 121.26 38.5599 121.101 38.5599C120.609 38.5599 120.214 38.4108 119.915 38.1126C119.62 37.8173 119.473 37.4236 119.473 36.9314C119.473 36.2656 119.808 35.7011 120.48 35.2379C121.155 34.7747 122.158 34.5431 123.489 34.5431C124.618 34.5431 125.591 34.7414 126.407 35.138C127.227 35.5375 127.849 36.0876 128.275 36.7881C128.703 37.4916 128.917 38.2993 128.917 39.2112V45.0735L130.22 45.3992V45.7249H128.266C127.397 45.7249 126.724 45.4571 126.247 44.9215C126.044 44.7044 125.885 44.4294 125.769 44.0965C125.566 44.4583 125.328 44.784 125.053 45.0735C124.401 45.7249 123.591 46.0505 122.621 46.0505ZM123.489 45.2906C124.025 45.2906 124.51 45.0011 124.944 44.4221C125.103 44.205 125.27 43.9155 125.443 43.5537V40.4054C124.778 40.4054 124.141 40.4416 123.533 40.514C123.084 40.5718 122.78 40.608 122.621 40.6225C122.548 40.7817 122.476 40.9989 122.404 41.2739C122.259 41.8239 122.187 42.3667 122.187 42.9023C122.187 43.7129 122.31 44.3136 122.556 44.7044C122.802 45.0952 123.113 45.2906 123.489 45.2906ZM131.523 45.7249V45.3992L132.826 45.0735V35.5202L131.523 35.1945V34.8688H133.477C134.331 34.8688 135.004 35.1438 135.496 35.6939C135.684 35.911 135.844 36.1788 135.974 36.4972C136.191 36.1788 136.459 35.8893 136.777 35.6287C137.501 35.0497 138.311 34.7602 139.209 34.7602C139.976 34.7602 140.551 34.9368 140.933 35.29C141.318 35.6461 141.51 36.157 141.51 36.8229C141.51 37.315 141.361 37.7087 141.063 38.004C140.768 38.3022 140.374 38.4513 139.882 38.4513C139.679 38.4513 139.477 38.4368 139.274 38.4079L139.013 38.3427V35.303C138.275 35.303 137.602 35.5925 136.994 36.1715C136.705 36.461 136.473 36.7505 136.299 37.04V45.0735L137.602 45.3992V45.7249H131.523Z" fill="black"/>
</g>
</g>
</g>
</g>
<g clip-path="url(#clip7_246_1364)">
<g clip-path="url(#clip8_246_1364)">
<path d="M62.6105 20.7634C62.515 20.7634 62.4375 20.6859 62.4375 20.5904V9.19082C62.4375 8.51224 62.9815 7.95996 63.6504 7.95996H68.6662C68.7617 7.95996 68.8392 8.03747 68.8392 8.13298C68.8392 8.22849 68.7617 8.306 68.6662 8.306H63.6504C63.1725 8.306 62.7835 8.70256 62.7835 9.19082V20.5904C62.7835 20.6859 62.706 20.7634 62.6105 20.7634Z" fill="black"/>
<path d="M80.256 20.7634C80.1605 20.7634 80.083 20.6859 80.083 20.5904V9.19082C80.083 8.70256 79.6941 8.306 79.2162 8.306H74.2004C74.1049 8.306 74.0273 8.22849 74.0273 8.13298C74.0273 8.03747 74.1049 7.95996 74.2004 7.95996H79.2162C79.8851 7.95996 80.4291 8.51224 80.4291 9.19082V20.5904C80.4291 20.6859 80.3516 20.7634 80.256 20.7634Z" fill="black"/>
<path d="M79.2184 11.0743C79.1229 11.0743 79.0454 10.9968 79.0454 10.9013V9.34409H74.7199C74.6244 9.34409 74.5469 9.26657 74.5469 9.17107C74.5469 9.07556 74.6244 8.99805 74.7199 8.99805H79.2184C79.3139 8.99805 79.3914 9.07556 79.3914 9.17107V10.9013C79.3914 10.9968 79.3139 11.0743 79.2184 11.0743Z" fill="black"/>
<path d="M79.2213 19.7253H63.6496C63.5541 19.7253 63.4766 19.6477 63.4766 19.5522V9.17107C63.4766 9.07556 63.5541 8.99805 63.6496 8.99805H68.1481C68.2436 8.99805 68.3211 9.07556 68.3211 9.17107C68.3211 9.26657 68.2436 9.34409 68.1481 9.34409H63.8226V19.3792H79.0483V15.7458C79.0483 15.6503 79.1258 15.5728 79.2213 15.5728C79.3168 15.5728 79.3944 15.6503 79.3944 15.7458V19.5522C79.3944 19.6477 79.3168 19.7253 79.2213 19.7253Z" fill="black"/>
<path d="M79.2199 14.1895C79.1244 14.1895 79.0469 14.112 79.0469 14.0165V12.2863C79.0469 12.1908 79.1244 12.1133 79.2199 12.1133C79.3154 12.1133 79.3929 12.1908 79.3929 12.2863V14.0165C79.3929 14.112 79.3154 14.1895 79.2199 14.1895Z" fill="black"/>
<path d="M80.951 21.8021H61.9178C61.25 21.8021 60.707 21.2592 60.707 20.5917C60.707 20.4962 60.7845 20.4187 60.8801 20.4187L69.531 20.418V20.764H61.0704C61.1507 21.1585 61.5002 21.4561 61.9175 21.4561H80.9507C81.368 21.4561 81.7175 21.1588 81.7978 20.7647L73.3375 20.764C73.2419 20.764 73.1644 20.6865 73.1644 20.591C73.1644 20.4955 73.2419 20.418 73.3375 20.418H81.9884C82.0839 20.418 82.1614 20.4955 82.1614 20.591C82.1614 21.2588 81.6185 21.8021 80.951 21.8021Z" fill="black"/>
<path d="M72.9889 21.11H69.8745C69.5884 21.11 69.3555 20.8772 69.3555 20.591C69.3555 20.4955 69.433 20.418 69.5285 20.418C69.624 20.418 69.7015 20.4955 69.7015 20.591C69.7015 20.6861 69.779 20.764 69.8745 20.764H72.9889C73.084 20.764 73.1619 20.6861 73.1619 20.591C73.1619 20.4955 73.2394 20.418 73.3349 20.418C73.4304 20.418 73.5079 20.4955 73.5079 20.591C73.5079 20.8772 73.2751 21.11 72.9889 21.11Z" fill="black"/>
<path d="M75.4132 10.7284C75.3948 10.7284 75.3765 10.7253 75.3585 10.7198L72.2442 9.68166C72.1535 9.65121 72.1047 9.55328 72.1348 9.46262C72.1653 9.37195 72.2635 9.32386 72.3539 9.35327L75.0716 10.2592L71.4998 3.11557H71.3676L67.7958 10.2592L70.514 9.35327C70.605 9.32282 70.7026 9.3723 70.7327 9.46262C70.7628 9.55293 70.714 9.65121 70.6233 9.68166L67.509 10.7198C67.4425 10.7409 67.3692 10.7222 67.3235 10.6689C67.2778 10.6163 67.2681 10.5409 67.2996 10.4782L71.106 2.86538C71.1355 2.80656 71.1953 2.76953 71.2607 2.76953H71.6068C71.6722 2.76953 71.732 2.80656 71.7614 2.86504L75.5679 10.4779C75.5994 10.5405 75.5893 10.6156 75.544 10.6686C75.5104 10.7073 75.4627 10.7284 75.4132 10.7284Z" fill="black"/>
<path d="M65.7261 3.46097C65.4399 3.46097 65.207 3.22808 65.207 2.94191C65.207 2.65574 65.4399 2.42285 65.7261 2.42285C66.0123 2.42285 66.2451 2.65574 66.2451 2.94191C66.2451 3.22808 66.0123 3.46097 65.7261 3.46097ZM65.7261 2.76889C65.6306 2.76889 65.5531 2.84675 65.5531 2.94191C65.5531 3.03707 65.6306 3.11493 65.7261 3.11493C65.8216 3.11493 65.8991 3.03707 65.8991 2.94191C65.8991 2.84675 65.8216 2.76889 65.7261 2.76889Z" fill="black"/>
<path d="M68.3171 5.19177C67.9354 5.19177 67.625 4.88138 67.625 4.4997C67.625 4.11801 67.9354 3.80762 68.3171 3.80762C68.6988 3.80762 69.0092 4.11801 69.0092 4.4997C69.0092 4.88138 68.6988 5.19177 68.3171 5.19177ZM68.3171 4.15366C68.1264 4.15366 67.971 4.30868 67.971 4.4997C67.971 4.69071 68.1264 4.84573 68.3171 4.84573C68.5077 4.84573 68.6631 4.69071 68.6631 4.4997C68.6631 4.30868 68.5077 4.15366 68.3171 4.15366Z" fill="black"/>
<path d="M74.5475 5.19177C74.1659 5.19177 73.8555 4.88138 73.8555 4.4997C73.8555 4.11801 74.1659 3.80762 74.5475 3.80762C74.9292 3.80762 75.2396 4.11801 75.2396 4.4997C75.2396 4.88138 74.9292 5.19177 74.5475 5.19177ZM74.5475 4.15366C74.3565 4.15366 74.2015 4.30868 74.2015 4.4997C74.2015 4.69071 74.3565 4.84573 74.5475 4.84573C74.7386 4.84573 74.8936 4.69071 74.8936 4.4997C74.8936 4.30868 74.7386 4.15366 74.5475 4.15366Z" fill="black"/>
<path d="M69.1831 1.3848C68.8969 1.3848 68.6641 1.15191 68.6641 0.865738C68.6641 0.579564 68.8969 0.34668 69.1831 0.34668C69.4693 0.34668 69.7022 0.579564 69.7022 0.865738C69.7022 1.15191 69.4693 1.3848 69.1831 1.3848ZM69.1831 0.692719C69.0876 0.692719 69.0101 0.770577 69.0101 0.865738C69.0101 0.960899 69.0876 1.03876 69.1831 1.03876C69.2786 1.03876 69.3561 0.960899 69.3561 0.865738C69.3561 0.770577 69.2786 0.692719 69.1831 0.692719Z" fill="black"/>
<path d="M73.6831 1.3848C73.3969 1.3848 73.1641 1.15191 73.1641 0.865738C73.1641 0.579564 73.3969 0.34668 73.6831 0.34668C73.9693 0.34668 74.2022 0.579564 74.2022 0.865738C74.2022 1.15191 73.9693 1.3848 73.6831 1.3848ZM73.6831 0.692719C73.588 0.692719 73.5101 0.770577 73.5101 0.865738C73.5101 0.960899 73.588 1.03876 73.6831 1.03876C73.7783 1.03876 73.8561 0.960899 73.8561 0.865738C73.8561 0.770577 73.7783 0.692719 73.6831 0.692719Z" fill="black"/>
<path d="M77.4878 7.26761C77.2016 7.26761 76.9688 7.03472 76.9688 6.74855C76.9688 6.46238 77.2016 6.22949 77.4878 6.22949C77.774 6.22949 78.0069 6.46238 78.0069 6.74855C78.0069 7.03472 77.774 7.26761 77.4878 7.26761ZM77.4878 6.57553C77.3926 6.57553 77.3148 6.65339 77.3148 6.74855C77.3148 6.84371 77.3926 6.92157 77.4878 6.92157C77.583 6.92157 77.6608 6.84371 77.6608 6.74855C77.6608 6.65339 77.583 6.57553 77.4878 6.57553Z" fill="black"/>
<path d="M77.1441 3.46097C76.8579 3.46097 76.625 3.22808 76.625 2.94191C76.625 2.65574 76.8579 2.42285 77.1441 2.42285C77.4302 2.42285 77.6631 2.65574 77.6631 2.94191C77.6631 3.22808 77.4302 3.46097 77.1441 3.46097ZM77.1441 2.76889C77.0489 2.76889 76.971 2.84675 76.971 2.94191C76.971 3.03707 77.0489 3.11493 77.1441 3.11493C77.2392 3.11493 77.3171 3.03707 77.3171 2.94191C77.3171 2.84675 77.2392 2.76889 77.1441 2.76889Z" fill="black"/>
<path d="M65.3784 7.26761C65.0923 7.26761 64.8594 7.03472 64.8594 6.74855C64.8594 6.46238 65.0923 6.22949 65.3784 6.22949C65.6646 6.22949 65.8975 6.46238 65.8975 6.74855C65.8975 7.03472 65.6646 7.26761 65.3784 7.26761ZM65.3784 6.57553C65.2829 6.57553 65.2054 6.65339 65.2054 6.74855C65.2054 6.84371 65.2829 6.92157 65.3784 6.92157C65.4739 6.92157 65.5515 6.84371 65.5515 6.74855C65.5515 6.65339 65.4739 6.57553 65.3784 6.57553Z" fill="black"/>
<path d="M71.6056 10.7284H71.2595C71.2017 10.7284 71.1478 10.6994 71.1156 10.6513L70.4235 9.61314C70.401 9.57958 70.3913 9.53909 70.3955 9.49895L71.0875 2.92421C71.0965 2.83632 71.1709 2.76953 71.2595 2.76953H71.6056C71.6942 2.76953 71.7686 2.83632 71.7775 2.92421L72.4696 9.49895C72.4741 9.53909 72.4637 9.57958 72.4416 9.61314L71.7495 10.6513C71.7173 10.6994 71.6634 10.7284 71.6056 10.7284ZM71.3523 10.3824H71.5132L72.1191 9.47334L71.4498 3.11557H71.4152L70.746 9.47334L71.3523 10.3824Z" fill="black"/>
<path d="M70.2238 14.881C70.1283 14.881 70.0508 14.8035 70.0508 14.708V10.9015C70.0508 10.806 70.1283 10.7285 70.2238 10.7285C70.3193 10.7285 70.3968 10.806 70.3968 10.9015V14.708C70.3968 14.8035 70.3193 14.881 70.2238 14.881Z" fill="black"/>
<path d="M72.6457 14.881C72.5502 14.881 72.4727 14.8035 72.4727 14.708V10.9015C72.4727 10.806 72.5502 10.7285 72.6457 10.7285C72.7412 10.7285 72.8187 10.806 72.8187 10.9015V14.708C72.8187 14.8035 72.7412 14.881 72.6457 14.881Z" fill="black"/>
<path d="M75.4113 13.1501C75.3158 13.1501 75.2383 13.0726 75.2383 12.9771V11.5929C75.2383 11.4974 75.3158 11.4199 75.4113 11.4199C75.5068 11.4199 75.5843 11.4974 75.5843 11.5929V12.9771C75.5843 13.0726 75.5068 13.1501 75.4113 13.1501Z" fill="black"/>
<path d="M72.6457 16.9574C72.5502 16.9574 72.4727 16.8799 72.4727 16.7844V15.7463C72.4727 15.6508 72.5502 15.5732 72.6457 15.5732C72.7412 15.5732 72.8187 15.6508 72.8187 15.7463V16.7844C72.8187 16.8799 72.7412 16.9574 72.6457 16.9574Z" fill="black"/>
<path d="M75.4113 14.8809C75.3158 14.8809 75.2383 14.8034 75.2383 14.7079V14.0158C75.2383 13.9203 75.3158 13.8428 75.4113 13.8428C75.5068 13.8428 75.5843 13.9203 75.5843 14.0158V14.7079C75.5843 14.8034 75.5068 14.8809 75.4113 14.8809Z" fill="black"/>
<path d="M67.4543 14.8809C67.3588 14.8809 67.2812 14.8034 67.2812 14.7079V14.0158C67.2812 13.9203 67.3588 13.8428 67.4543 13.8428C67.5498 13.8428 67.6273 13.9203 67.6273 14.0158V14.7079C67.6273 14.8034 67.5498 14.8809 67.4543 14.8809Z" fill="black"/>
<path d="M70.2238 16.9574C70.1283 16.9574 70.0508 16.8799 70.0508 16.7844V15.7463C70.0508 15.6508 70.1283 15.5732 70.2238 15.5732C70.3193 15.5732 70.3968 15.6508 70.3968 15.7463V16.7844C70.3968 16.8799 70.3193 16.9574 70.2238 16.9574Z" fill="black"/>
<path d="M67.4543 13.1501C67.3588 13.1501 67.2812 13.0726 67.2812 12.9771V11.5929C67.2812 11.4974 67.3588 11.4199 67.4543 11.4199C67.5498 11.4199 67.6273 11.4974 67.6273 11.5929V12.9771C67.6273 13.0726 67.5498 13.1501 67.4543 13.1501Z" fill="black"/>
</g>
</g>
<path d="M114.749 20.0459H85.0039V21.4459H114.749V20.0459Z" fill="black"/>
<path d="M57.8777 20.0459H28.1328V21.4459H57.8777V20.0459Z" fill="black"/>
</g>
</g>
</g>
<defs>
<clipPath id="clip0_246_1364">
<rect width="141.125" height="45.5834" fill="white" transform="translate(0.875 0.40625)"/>
</clipPath>
<clipPath id="clip1_246_1364">
<rect width="140.853" height="45.7084" fill="white" transform="translate(1.01172 0.34375)"/>
</clipPath>
<clipPath id="clip2_246_1364">
<rect width="140.853" height="45.7084" fill="white" transform="translate(1.01172 0.344727)"/>
</clipPath>
<clipPath id="clip3_246_1364">
<rect width="140.152" height="15.5242" fill="white" transform="translate(1.36328 30.5283)"/>
</clipPath>
<clipPath id="clip4_246_1364">
<rect width="140.152" height="15.5242" fill="white" transform="translate(1.36328 30.5273)"/>
</clipPath>
<clipPath id="clip5_246_1364">
<rect width="140.152" height="15.5242" fill="white" transform="translate(1.36328 30.5264)"/>
</clipPath>
<clipPath id="clip6_246_1364">
<rect width="140.152" height="15.5242" fill="white" transform="translate(1.36328 30.5264)"/>
</clipPath>
<clipPath id="clip7_246_1364">
<rect width="27.124" height="21.4544" fill="white" transform="translate(57.875 0.345703)"/>
</clipPath>
<clipPath id="clip8_246_1364">
<rect width="21.4544" height="21.4544" fill="white" transform="translate(60.707 0.34668)"/>
</clipPath>
</defs>
</svg>
