<svg width="391" height="257" viewBox="0 0 391 257" fill="none" xmlns="http://www.w3.org/2000/svg">
<g clip-path="url(#clip0_251_1488)">
<path d="M384.219 60.4071L378.104 90.0187L374.17 86.1811L367.472 90.9554L362.356 84.6035L350.877 92.9482L341.073 76.5457L330.132 82.9531L325.795 76.9706L311.903 84.7978L307.723 75.8505L317.46 28.6889L369.665 39.4674L384.219 60.4071Z" fill="#E7E8E5"/>
<path d="M369.668 39.4678L384.223 60.4043L366.117 56.6664L369.668 39.4678Z" fill="#D4D6D3"/>
<path d="M376.805 95.9373L367.836 139.383L297.523 124.869L306.423 81.7698L310.603 90.7171L324.495 82.8899L328.832 88.8724L339.774 82.465L349.577 98.8675L361.056 90.5222L366.173 96.874L372.871 92.1004L376.805 95.9373Z" fill="#E7E8E5"/>
<path d="M276.164 90.8463L204.506 95.2812L198.812 3.29332L252.019 0.000801086L271.556 16.3861L276.164 90.8463Z" fill="#E7E8E5"/>
<path d="M252.02 0.000597L271.557 16.3859L253.104 17.5283L252.02 0.000597Z" fill="#D4D6D3"/>
<path d="M231.02 73.2095C230.853 70.2442 232.74 68.0481 235.545 67.8909C238.349 67.7337 240.39 69.71 240.555 72.6754C240.712 75.4797 238.991 77.7467 236.026 77.9135C233.221 78.07 231.177 76.0139 231.02 73.2095ZM232.154 61.8905L231.876 59.8158C231.154 55.5151 232.331 50.7063 236.069 45.6733C239.437 41.2236 241.266 37.9861 241.064 34.3798C240.835 30.2924 238.118 27.7111 233.064 27.9136C230.179 28.0753 227.027 29.2164 225.109 30.8515L222.902 25.9105C225.44 23.839 229.936 22.3004 234.184 22.0627C243.401 21.5465 247.886 27.0037 248.227 33.0936C248.533 38.5439 245.707 42.6408 242.116 47.4246C238.823 51.7893 237.739 55.3873 238.208 59.4612L238.405 61.541L232.154 61.8905Z" fill="#D4D6D3"/>
<path d="M48.8532 53.5374C50.939 56.4485 50.2706 60.4969 47.3591 62.5824C44.4474 64.6692 40.3943 64.0035 38.3082 61.0918C36.2219 58.1807 36.8923 54.124 39.804 52.0378C42.7155 49.9516 46.7669 50.6257 48.8532 53.5374ZM52.9437 46.247L45.7328 42.9768L44.7327 45.185C44.4384 45.8342 43.8014 46.2489 43.0891 46.2802C42.6955 46.2975 42.3022 46.3358 41.9106 46.3959C41.2077 46.5032 40.5039 46.2195 40.0898 45.6419L38.6781 43.672L32.2392 48.2852L33.6509 50.2551C34.065 50.8334 34.1064 51.5905 33.7789 52.2212C33.5965 52.5732 33.4335 52.9336 33.2904 53.3004C33.0316 53.9649 32.4346 54.4345 31.7252 54.5048L29.3125 54.7412L30.0902 62.6214L32.511 62.3799C33.2208 62.3089 33.8924 62.6623 34.2779 63.2629C34.3821 63.4258 34.4917 63.5862 34.6053 63.7453C34.7189 63.9038 34.8362 64.059 34.9567 64.2105C35.3992 64.7651 35.5178 65.5107 35.225 66.158L34.2177 68.3822L41.4289 71.6523L42.4329 69.4396C42.7277 68.7905 43.3657 68.3771 44.0782 68.3464C44.4701 68.3298 44.8622 68.2915 45.252 68.2327C45.9544 68.1266 46.6575 68.4097 47.0711 68.9866L48.4833 70.9572L54.9219 66.3446L53.51 64.3734C53.0962 63.7964 53.0548 63.0393 53.381 62.4086C53.5624 62.0585 53.7242 61.6994 53.8662 61.3333C54.1243 60.6688 54.7213 60.1979 55.4309 60.1276L57.8487 59.8886L57.0712 52.0084L54.6522 52.2474C53.9445 52.317 53.2754 51.965 52.8913 51.3663C52.7862 51.2027 52.6759 51.0404 52.5611 50.8807C52.4475 50.7222 52.3302 50.5669 52.2094 50.4149C51.7649 49.8571 51.6461 49.1076 51.9408 48.4578L52.9437 46.247Z" fill="#E7E8E5"/>
<path d="M381.231 156.082C383.74 156.082 385.773 158.115 385.773 160.623C385.773 163.132 383.74 165.169 381.231 165.169C378.722 165.169 376.685 163.132 376.685 160.623C376.685 158.115 378.722 156.082 381.231 156.082ZM378.749 150.778L373.944 153.55L374.793 155.021C375.044 155.453 375.019 155.984 374.746 156.404C374.596 156.634 374.457 156.874 374.332 157.122C374.106 157.566 373.657 157.851 373.159 157.851H371.461V163.4H373.159C373.657 163.4 374.106 163.685 374.332 164.13C374.457 164.376 374.596 164.617 374.746 164.848C375.019 165.266 375.044 165.798 374.793 166.231L373.944 167.701L378.749 170.473L379.599 168.996C379.848 168.563 380.323 168.325 380.823 168.35C380.958 168.357 381.094 168.361 381.231 168.361C381.367 168.361 381.503 168.357 381.639 168.35C382.136 168.325 382.609 168.562 382.857 168.992L383.713 170.473L388.518 167.701L387.668 166.226C387.418 165.794 387.443 165.261 387.717 164.843C387.867 164.613 388.005 164.375 388.131 164.129C388.357 163.685 388.805 163.4 389.302 163.4H391V157.851H389.302C388.805 157.851 388.357 157.566 388.131 157.123C388.005 156.876 387.867 156.638 387.717 156.408C387.443 155.99 387.418 155.457 387.668 155.025L388.518 153.55L383.713 150.778L382.862 152.253C382.613 152.684 382.14 152.922 381.642 152.896C381.507 152.89 381.369 152.886 381.231 152.886C381.094 152.886 380.958 152.89 380.823 152.896C380.323 152.923 379.848 152.684 379.598 152.251L378.749 150.778Z" fill="#E7E8E5"/>
<path d="M70.6743 27.5772C73.1624 27.2533 75.4403 29.0066 75.7642 31.4946C76.0882 33.9833 74.3355 36.2657 71.8474 36.589C69.3587 36.9129 67.0764 35.1565 66.7524 32.6677C66.4285 30.1797 68.1862 27.9012 70.6743 27.5772ZM67.5281 22.6381L63.1217 26.0073L64.1538 27.3555C64.4573 27.7523 64.5021 28.2832 64.2855 28.7331C64.166 28.9816 64.0593 29.2372 63.9666 29.4992C63.8001 29.9682 63.3925 30.3094 62.8986 30.3739L61.2148 30.5931L61.9312 36.0951L63.6149 35.8766C64.1091 35.812 64.5902 36.0376 64.8714 36.4478C65.0279 36.6772 65.196 36.8976 65.3755 37.1072C65.7001 37.4867 65.7927 38.0107 65.6004 38.472L64.948 40.04L70.0705 42.1689L70.7229 40.5946C70.9139 40.1326 71.3548 39.8349 71.8532 39.7959C71.988 39.785 72.1235 39.771 72.2589 39.7537C72.3944 39.7358 72.5292 39.7147 72.6627 39.6905C73.1522 39.601 73.6518 39.7748 73.9541 40.1697L74.9936 41.5281L79.4005 38.1589L78.3667 36.8062C78.0632 36.4094 78.0191 35.8785 78.2363 35.4286C78.3558 35.1814 78.4619 34.9264 78.5545 34.6657C78.7219 34.1974 79.1289 33.8568 79.6228 33.7929L81.3071 33.5738L80.5909 28.0711L78.9066 28.2903C78.4133 28.3548 77.9322 28.1293 77.6504 27.7197C77.4945 27.4916 77.3265 27.2724 77.1475 27.0635C76.8223 26.684 76.7297 26.16 76.9207 25.6987L77.5737 24.1269L72.4519 21.9972L71.7982 23.5704C71.6072 24.0298 71.1676 24.3262 70.6711 24.3658C70.5357 24.3767 70.3989 24.3908 70.2616 24.4087C70.1267 24.4265 69.9919 24.447 69.8584 24.4713C69.367 24.5614 68.8642 24.3863 68.5607 23.9895L67.5281 22.6381Z" fill="#E7E8E5"/>
<path d="M34.6283 166.798C34.8799 160.616 34.7788 154.42 34.3737 148.246C33.5379 135.512 31.4413 122.876 28.562 110.45C26.9417 103.456 24.9457 96.5792 22.8664 89.7111C22.8037 89.5035 22.4725 89.5623 22.5301 89.7782C28.9604 113.991 34.2364 138.979 33.8731 164.15C33.7712 171.194 32.956 178.113 32.2872 185.112C32.2694 185.3 32.5775 185.375 32.6201 185.183C33.9477 179.192 34.3795 172.916 34.6283 166.798Z" fill="#E7E8E5"/>
<path d="M22.5312 89.7779C22.5312 89.7779 12.7897 114.504 14.9706 120.316C17.1518 126.128 21.6479 127.367 21.6479 127.367C21.6479 127.367 15.6877 135.877 19.8526 143.858C24.018 151.839 33.2718 151.462 33.8868 160.512C33.8868 160.512 34.4025 122.673 22.5312 89.7779Z" fill="#E7E8E5"/>
<path d="M32.8283 144.887L32.8185 144.757C31.4503 127.945 28.4674 111.184 23.3693 95.0162L23.2892 95.0335C25.219 102.266 26.9367 109.538 28.4043 116.85C27.1394 115.547 25.4846 114.798 23.7542 114.257L23.7365 114.307C25.5382 115.086 27.2644 115.989 28.5381 117.515C28.8226 118.947 29.1009 120.381 29.3654 121.817C27.1885 119.385 24.1695 118.177 21.1487 117.03L21.125 117.096C24.2713 118.377 27.4049 120.027 29.5367 122.738C30.28 126.842 30.9304 130.96 31.4932 135.09C29.9021 133.427 27.9378 132.31 25.6842 131.761C25.6166 131.744 25.5789 131.845 25.6476 131.865C27.9625 132.531 29.9535 133.827 31.5386 135.638L31.5749 135.666C31.7697 137.119 31.954 138.574 32.1262 140.03C30.9004 138.985 29.5462 138.19 28.0549 137.574L28.0326 137.636C29.5477 138.282 30.9107 139.211 32.1104 140.335L32.1624 140.356C32.3246 141.741 32.4861 143.126 32.6264 144.513C30.3928 141.823 27.6313 139.875 24.3642 138.614C24.3003 138.59 24.2676 138.687 24.329 138.713C27.5055 140.095 30.3059 142.283 32.4714 144.979C32.5308 145.053 32.6081 145.065 32.6765 145.044C32.8872 147.172 33.0759 149.303 33.2321 151.437L33.2805 151.439C33.1575 149.255 33.0048 147.07 32.8283 144.887Z" fill="white"/>
<path d="M25.0027 111.802C23.3132 110.64 21.1665 110.145 19.15 109.977L19.1445 110.051C21.2421 110.363 23.0042 111.122 24.9316 111.941C25.0154 111.977 25.0753 111.851 25.0027 111.802Z" fill="white"/>
<path d="M26.1845 137.979C24.8479 137.177 23.3227 136.724 21.7912 136.476L21.7852 136.56C23.3404 136.842 24.7179 137.396 26.131 138.084C26.1917 138.114 26.2418 138.014 26.1845 137.979Z" fill="white"/>
<path d="M60.2383 120.721C56.1755 123.576 52.2771 126.871 48.9631 130.577C45.4306 134.527 42.8546 139.01 41.0554 143.986C37.3696 154.182 35.3489 165.225 35.1647 176.06C35.0614 182.133 35.6015 188.16 36.9009 194.096C36.9483 194.312 37.2713 194.251 37.2381 194.032C35.6499 183.588 35.7078 172.93 37.4148 162.505C39.0896 152.276 41.7175 141.147 48.2196 132.834C51.76 128.307 56.1743 124.746 60.5383 121.066C60.7677 120.872 60.4744 120.554 60.2383 120.721Z" fill="#E7E8E5"/>
<path d="M36.6016 168.693C36.6016 168.693 39.9473 163.06 44.8205 158.188C49.6938 153.316 53.7983 149.853 54.4315 146.63C55.0652 143.409 49.55 141.035 49.55 141.035C49.55 141.035 56.294 142.246 58.139 139.416C59.9842 136.585 60.8749 120.193 60.8749 120.193C60.8749 120.193 48.6063 128.952 42.8902 141.231C37.1741 153.51 36.6016 168.693 36.6016 168.693Z" fill="#E7E8E5"/>
<path d="M56.6277 124.396C51.4657 129.467 46.2702 134.869 43.2302 141.531C42.1879 143.814 41.3011 146.183 40.5202 148.595L40.5164 148.607C40.3599 149.091 40.201 149.574 40.0532 150.062L40.0284 150.142C38.5257 155.117 37.4634 160.261 36.543 165.287L36.5931 165.303C37.122 162.745 37.7048 160.163 38.3564 157.587L38.4299 157.573C39.4734 157.134 40.5227 156.86 41.6493 156.756C41.7224 156.749 41.7167 156.622 41.6423 156.626C40.5551 156.678 39.4908 156.868 38.4578 157.207C39.0523 154.885 39.698 152.569 40.4243 150.287C42.7929 149.707 45.2649 149.394 47.7009 149.335L47.7044 149.296C45.2487 149.182 42.9412 149.393 40.5496 149.903C40.6759 149.512 40.808 149.123 40.9385 148.733C42.5381 148.369 44.1442 148.062 45.7811 147.912L45.7781 147.86C44.1757 147.903 42.5965 148.072 41.0368 148.436C41.7045 146.461 42.4258 144.513 43.2262 142.617C43.8882 141.048 44.6754 139.557 45.5424 138.12C46.8543 137.823 48.1259 137.539 49.4702 137.42L49.4667 137.354C48.2465 137.274 46.9751 137.366 45.7947 137.717C46.4402 136.675 47.1181 135.653 47.8434 134.664H47.8442C50.5954 134.055 53.3838 133.49 56.1982 134.018L56.2167 133.933C53.5373 133.228 50.8782 133.635 48.2123 134.162C48.5031 133.776 48.8006 133.393 49.1011 133.013C50.7901 132.491 52.4698 132.239 54.2417 132.206L54.2464 132.149C52.6293 131.995 51.0164 132.151 49.4535 132.574C51.7283 129.748 54.2404 127.095 56.7241 124.469C56.8396 124.347 56.7501 124.276 56.6277 124.396Z" fill="white"/>
<path d="M56.4901 135.57C55.6827 135.485 54.8613 135.394 54.0499 135.486C53.9518 135.496 53.9603 135.657 54.0589 135.659C54.8666 135.683 55.674 135.623 56.4821 135.667C56.5443 135.671 56.552 135.577 56.4901 135.57Z" fill="white"/>
<path d="M47.6641 151.471C46.375 151.455 45.0871 151.802 43.8828 152.23L43.9008 152.284C45.1493 151.986 46.4124 151.866 47.6738 151.657C47.777 151.641 47.7722 151.472 47.6641 151.471Z" fill="white"/>
<path d="M45.0155 145.978C44.4922 145.951 43.9258 146.043 43.4102 146.123L43.4151 146.219C43.9368 146.228 44.5101 146.243 45.0238 146.144C45.1149 146.126 45.1109 145.983 45.0155 145.978Z" fill="white"/>
<path d="M0.637357 138.116C4.58513 139.488 8.50147 141.252 12.0402 143.486C15.8117 145.866 18.9331 148.899 21.5393 152.511C26.8785 159.909 31.0664 168.379 33.7195 177.105C35.2072 181.996 36.1628 186.999 36.4833 192.103C36.495 192.289 36.2194 192.314 36.1957 192.13C35.0668 183.309 32.5567 174.698 28.7654 166.655C25.0458 158.764 20.347 150.366 13.1636 145.141C9.25224 142.296 4.85669 140.435 0.474375 138.465C0.244253 138.361 0.407734 138.036 0.637357 138.116Z" fill="#E7E8E5"/>
<path d="M30.8541 171.477C30.8541 171.477 26.8445 167.69 21.7745 164.874C16.7048 162.057 12.5829 160.204 11.3252 157.742C10.0677 155.281 13.9828 152.086 13.9828 152.086C13.9828 152.086 8.80456 154.625 6.6573 152.76C4.50985 150.897 0 137.836 0 137.836C0 137.836 11.9534 142.089 19.4176 150.705C26.8817 159.321 30.8541 171.477 30.8541 171.477Z" fill="#E7E8E5"/>
<path d="M30.2357 168.781C24.2572 157.559 16.2798 147.408 5.34899 140.707L5.34375 140.714C8.2215 142.547 10.8734 144.663 13.3446 146.975C11.1322 146.914 8.87943 147.266 6.91792 148.332L6.95037 148.399C9.1368 147.659 11.2376 147.173 13.563 147.281L13.6379 147.253C14.026 147.621 14.4086 147.995 14.7875 148.372C13.6371 148.422 12.4738 148.584 11.3531 148.828L11.3627 148.876C12.5751 148.641 13.7592 148.559 14.9899 148.577C16.9932 150.589 18.8593 152.742 20.6279 154.978C19.8295 154.863 18.9924 154.93 18.2268 155.153C18.1702 155.169 18.1847 155.251 18.2444 155.243C19.1154 155.133 19.9428 155.148 20.8076 155.208C21.1351 155.625 21.4658 156.039 21.786 156.461C19.3281 156.312 16.92 156.548 14.5312 157.166L14.5419 157.222C17.0059 156.738 19.4903 156.584 21.9934 156.738C22.2984 157.142 22.5872 157.558 22.8862 157.967C21.4196 157.923 19.9974 158.106 18.5675 158.462L18.584 158.548C20.0551 158.213 21.5509 158.128 23.0547 158.2C24.3406 159.972 25.5728 161.783 26.7563 163.616C26.1297 163.487 25.4717 163.557 24.861 163.731L24.871 163.782C25.5745 163.7 26.2312 163.79 26.9223 163.879C27.9871 165.537 29.0159 167.211 30.0023 168.895C30.0857 169.036 30.315 168.93 30.2357 168.781Z" fill="white"/>
<path d="M20.9299 159.475C19.7613 159.374 18.5735 159.558 17.457 159.899L17.467 159.951C18.6162 159.739 19.7555 159.659 20.9203 159.597C20.997 159.593 21.0117 159.481 20.9299 159.475Z" fill="white"/>
<path d="M10.5031 145.799C9.97474 145.739 9.42339 145.809 8.90149 145.893C8.83932 145.902 8.85855 145.994 8.91944 145.988C9.44607 145.931 9.96547 145.951 10.4924 145.936C10.5782 145.933 10.592 145.81 10.5031 145.799Z" fill="white"/>
<path d="M46.2711 208.584H19.2891L23.1363 180.401L24.1197 173.175H41.4407L42.4242 180.401L46.2711 208.584Z" fill="#D4D6D3"/>
<path d="M42.4285 180.402H23.1406L24.124 173.176H41.4451L42.4285 180.402Z" fill="#BEBFBD"/>
<path d="M43.92 176.789H21.6445V170.669H43.92V176.789Z" fill="#D4D6D3"/>
<path d="M2.13672 208.585L50.703 208.43L99.269 208.373L196.401 208.267L293.533 208.373L342.099 208.429L390.665 208.585L342.099 208.741L293.533 208.797L196.401 208.904L99.269 208.797L50.703 208.741L2.13672 208.585Z" fill="#17282F"/>
<path d="M380.893 236.131C380.893 247.22 298.865 256.207 197.679 256.207C96.4929 256.207 14.4648 247.22 14.4648 236.131C14.4648 225.044 96.4929 216.056 197.679 216.056C298.865 216.056 380.893 225.044 380.893 236.131Z" fill="#E7E8E5"/>
<path d="M155.032 232.806C153.542 233.31 110.851 233.46 109.22 232.437C108.599 232.052 108.214 225.836 107.963 218.312C107.908 216.687 107.862 215.009 107.825 213.304L104.363 190.534L132.902 190.352L135.596 213.126L135.487 218.135C135.487 218.135 151.857 225.388 153.526 226.703C155.186 228.017 156.521 232.302 155.032 232.806Z" fill="#F57A76"/>
<path d="M155.027 232.806C153.537 233.31 110.846 233.46 109.215 232.437C108.461 231.965 108.049 222.887 107.82 213.304L135.591 213.126L135.482 218.135C135.482 218.135 151.852 225.388 153.521 226.703C155.181 228.017 156.516 232.302 155.027 232.806Z" fill="white"/>
<path d="M155.029 232.806C153.54 233.31 110.849 233.46 109.218 232.437C108.597 232.052 108.212 225.836 107.961 218.312L135.484 218.135C135.484 218.135 151.855 225.388 153.524 226.703C155.184 228.017 156.519 232.302 155.029 232.806Z" fill="#999B9B"/>
<path d="M154.409 231.098C147.252 230.948 118.371 231.016 111.285 231.411C111.228 231.414 111.228 231.453 111.285 231.456C118.376 231.76 147.255 231.458 154.409 231.216C154.56 231.211 154.56 231.101 154.409 231.098Z" fill="#17282F"/>
<path d="M150.774 225.177C149.076 225.114 147.42 225.925 146.499 226.939C145.613 227.913 144.857 229.281 144.913 230.766L144.999 230.765C145.398 227.963 147.937 225.494 150.774 225.266C150.832 225.262 150.832 225.179 150.774 225.177Z" fill="#17282F"/>
<path d="M138.266 218.836C135.401 218.807 132.084 219.829 130.312 222.178C130.244 222.269 130.374 222.365 130.459 222.321C133.044 220.977 135.502 219.974 138.316 219.189C138.515 219.133 138.471 218.839 138.266 218.836Z" fill="#17282F"/>
<path d="M140.476 219.69C137.612 219.66 134.295 220.683 132.523 223.031C132.454 223.123 132.585 223.218 132.67 223.175C135.254 221.83 137.712 220.828 140.527 220.042C140.726 219.987 140.681 219.692 140.476 219.69Z" fill="#17282F"/>
<path d="M142.692 220.545C139.827 220.516 136.51 221.538 134.738 223.887C134.67 223.978 134.8 224.074 134.885 224.03C137.469 222.686 139.927 221.683 142.742 220.897C142.94 220.842 142.897 220.548 142.692 220.545Z" fill="#17282F"/>
<path d="M144.906 221.398C142.042 221.369 138.724 222.392 136.953 224.74C136.884 224.832 137.014 224.928 137.099 224.883C139.684 223.54 142.142 222.537 144.957 221.751C145.155 221.695 145.111 221.401 144.906 221.398Z" fill="#17282F"/>
<path d="M113.088 224.607C109.874 224.628 109.901 229.622 113.12 229.601C116.333 229.581 116.307 224.587 113.088 224.607Z" fill="#17282F"/>
<path d="M137.836 217.282C136.852 218.003 135.84 218.672 134.883 219.43C135.39 218.001 135.832 216.558 136.483 215.181C136.793 214.524 137.124 213.854 137.522 213.244C138.141 212.296 140.944 209.892 141.24 213.008C141.403 214.725 139.009 216.421 137.836 217.282ZM141.329 211.182C139.875 209.985 138.053 211.166 137.163 212.418C135.723 214.445 134.738 217.281 134.586 219.751C134.583 219.812 134.629 219.836 134.676 219.833C134.738 220.038 134.981 220.209 135.192 220.062C137.226 218.644 139.577 217.38 141.116 215.381C142.014 214.213 142.705 212.314 141.329 211.182Z" fill="#17282F"/>
<path d="M125.742 219.216C123.795 216.766 127.481 216.555 128.585 216.809C129.293 216.972 129.996 217.225 130.675 217.484C132.099 218.025 133.419 218.759 134.775 219.437C133.56 219.554 132.366 219.775 131.157 219.936C129.716 220.129 126.814 220.567 125.742 219.216ZM127.476 220.841C129.971 221.215 132.541 220.495 134.99 220.106C135.245 220.067 135.3 219.775 135.203 219.584L135.211 219.462C133.39 217.788 130.713 216.426 128.269 215.965C126.761 215.679 124.628 216.092 124.411 217.963C124.205 219.732 126.019 220.621 127.476 220.841Z" fill="#17282F"/>
<path d="M62.4258 85.2802C62.4258 85.2802 95.5679 141.661 96.4554 145.62C97.819 151.702 105.047 211.773 105.047 211.773L139.532 211.152C139.532 211.152 133.589 158.189 127.96 140.74C123.905 128.172 94.6562 86.4872 94.6562 86.4872L62.4258 85.2802Z" fill="#B1CCD7"/>
<path d="M136.394 205.868C131.442 205.831 113.892 205.634 107.301 206.249L107.302 206.344C109.57 206.67 131.446 206.163 136.396 206.004C136.489 206.001 136.487 205.869 136.394 205.868Z" fill="#17282F"/>
<path d="M68.0827 90.4538C70.2545 93.8607 72.5458 97.196 74.7661 100.572C76.9878 103.95 79.2017 107.334 81.3857 110.735C85.7523 117.534 90.0039 124.404 94.1781 131.317C96.1359 134.559 98.0003 137.831 99.3447 141.367C100.676 144.87 101.583 148.515 102.254 152.189C102.929 155.89 103.375 159.627 103.795 163.362C104.242 167.339 104.683 171.318 105.127 175.296C106.036 183.435 106.944 191.575 107.853 199.714C107.965 200.713 108.074 201.711 108.174 202.711C108.188 202.857 107.926 202.886 107.908 202.739C106.893 194.652 106.05 186.54 105.128 178.441C104.67 174.409 104.211 170.377 103.752 166.345C103.325 162.597 102.92 158.843 102.338 155.114C101.766 151.451 101.024 147.803 99.9089 144.257C98.7447 140.552 97.0949 137.074 95.141 133.705C91.145 126.813 86.9158 120.039 82.6853 113.282C78.4184 106.466 74.1157 99.6694 69.6532 92.9738C69.1018 92.147 68.5466 91.3253 67.9754 90.5113C67.9306 90.4487 68.0405 90.388 68.0827 90.4538Z" fill="#17282F"/>
<path d="M73.2877 236.13C71.7152 236.034 31.1196 219.585 29.988 218.026C29.9505 217.974 29.928 217.872 29.9258 217.726C29.9333 216.33 32.7446 211.444 35.0945 205.032C35.2418 204.623 36.2891 202.72 37.7434 200.154C41.7411 193.108 48.814 181.036 48.814 181.036L75.3489 191.579L62.6483 210.59L60.6713 215.193C60.6713 215.193 73.1247 228.062 74.1764 229.905C75.2218 231.746 74.8544 236.219 73.2877 236.13Z" fill="#F57A76"/>
<path d="M73.2877 236.13C71.7152 236.034 31.1196 219.585 29.988 218.026C29.9505 217.974 29.928 217.872 29.9258 217.726C29.9333 216.33 32.7446 211.444 35.0945 205.032C35.2418 204.623 36.2891 202.72 37.7434 200.154L62.6483 210.59L60.6713 215.193C60.6713 215.193 73.1247 228.062 74.1764 229.905C75.2218 231.746 74.8544 236.219 73.2877 236.13Z" fill="white"/>
<path d="M73.2887 236.128C71.7181 236.037 31.1211 219.586 29.992 218.025C29.5612 217.436 31.3762 211.892 35.0946 205.035L60.6742 215.197C60.6742 215.197 73.1283 228.061 74.1826 229.906C75.2285 231.747 74.8579 236.219 73.2887 236.128Z" fill="#999B9B"/>
<path d="M73.3538 234.314C66.7758 231.49 39.9793 220.719 33.2628 218.427L33.2461 218.469C39.7045 221.411 66.5873 231.964 73.3103 234.423C73.4522 234.475 73.4931 234.374 73.3538 234.314Z" fill="#17282F"/>
<path d="M72.2013 227.458C70.6518 226.763 68.8123 226.895 67.5778 227.489C66.3913 228.059 65.1773 229.044 64.6719 230.441L64.7524 230.473C66.1728 228.025 69.4525 226.689 72.1687 227.542L72.2013 227.458Z" fill="#17282F"/>
<path d="M62.9861 216.887C60.342 215.785 56.8834 215.489 54.36 217.002C54.2619 217.06 54.3468 217.198 54.4421 217.19C57.3419 216.913 59.9965 216.905 62.9005 217.233C63.1057 217.256 63.1756 216.967 62.9861 216.887Z" fill="#17282F"/>
<path d="M64.7166 218.511C62.0722 217.408 58.6139 217.112 56.0903 218.625C55.9925 218.683 56.0774 218.821 56.1727 218.813C59.0724 218.536 61.7273 218.528 64.6309 218.856C64.836 218.88 64.9057 218.59 64.7166 218.511Z" fill="#17282F"/>
<path d="M66.4473 220.134C63.803 219.031 60.3441 218.736 57.8208 220.248C57.723 220.306 57.8078 220.444 57.9029 220.435C60.8029 220.159 63.4581 220.151 66.3617 220.479C66.5662 220.502 66.6365 220.212 66.4473 220.134Z" fill="#17282F"/>
<path d="M68.1811 221.757C65.5371 220.654 62.0788 220.359 59.5554 221.871C59.4573 221.93 59.5419 222.067 59.6373 222.059C62.5372 221.782 65.1921 221.774 68.0961 222.102C68.3006 222.125 68.3702 221.836 68.1811 221.757Z" fill="#17282F"/>
<path d="M37.483 212.795C34.4961 211.608 32.6475 216.248 35.6388 217.436C38.6254 218.623 40.4746 213.983 37.483 212.795Z" fill="#17282F"/>
<path d="M63.1734 215.29C61.9908 215.59 60.801 215.83 59.63 216.174C60.6355 215.038 61.587 213.866 62.7064 212.833C63.2408 212.341 63.7989 211.845 64.3963 211.429C65.3259 210.782 68.8261 209.606 67.9316 212.604C67.4383 214.258 64.5828 214.931 63.1734 215.29ZM68.6996 210.946C67.8006 209.29 65.6678 209.701 64.3739 210.528C62.2783 211.866 60.3008 214.127 59.2344 216.36L59.2868 216.469C59.267 216.682 59.428 216.932 59.6789 216.874C62.0964 216.324 64.7496 216.034 66.9259 214.758C68.1968 214.013 69.5494 212.51 68.6996 210.946Z" fill="#17282F"/>
<path d="M51.2384 212.54C50.3528 209.538 53.8494 210.726 54.7773 211.375C55.3733 211.793 55.9299 212.291 56.4626 212.785C57.579 213.821 58.5272 214.996 59.5295 216.134C58.3592 215.787 57.1701 215.543 55.9883 215.24C54.5802 214.878 51.7263 214.195 51.2384 212.54ZM52.2372 214.696C54.4099 215.979 57.0623 216.277 59.4782 216.835C59.7284 216.893 59.8905 216.644 59.8715 216.43L59.9242 216.321C58.8644 214.086 56.8939 211.819 54.8023 210.475C53.5107 209.645 51.3795 209.227 50.4757 210.879C49.6208 212.442 50.9691 213.947 52.2372 214.696Z" fill="#17282F"/>
<path d="M64.6978 209.525L34.9961 197.532C34.9961 197.532 71.8228 143.384 72.0956 139.354C72.3365 135.784 56.1611 104.718 55.5237 95.6636C54.8358 85.8927 59.5408 78.3301 64.7106 73.637L95.3515 86.6614C95.3515 86.6614 92.1178 91.8356 87.0241 94.7148C87.0241 94.7148 102.737 130.624 101.846 141.666C100.949 152.767 64.6978 209.525 64.6978 209.525Z" fill="#B1CCD7"/>
<path d="M66.0165 203.88C61.7213 202.033 62.9802 202.502 58.6645 200.704C56.5522 199.823 42.669 194.052 40.5555 193.578L40.5195 193.665C42.3673 194.797 56.3488 200.325 58.4776 201.165C62.8269 202.88 61.5967 202.339 65.9654 204.007C66.0472 204.038 66.097 203.915 66.0165 203.88Z" fill="#17282F"/>
<path d="M92.0689 94.0602C88.8767 94.7465 85.7452 95.8742 82.737 97.0863C82.6188 97.1336 82.6744 97.3093 82.8003 97.2723C85.9331 96.3579 89.1189 95.5036 92.1935 94.4232C92.435 94.3388 92.3136 94.0078 92.0689 94.0602Z" fill="#17282F"/>
<path d="M88.4352 92.7978C88.1336 93.3249 87.8767 93.8789 87.648 94.4399C87.471 94.875 87.2442 95.3408 87.2461 95.8156C87.2467 95.9076 87.3707 95.9299 87.4276 95.8737C87.7828 95.5242 87.9726 95.013 88.1975 94.5766C88.4582 94.0706 88.7304 93.5697 88.9764 93.0572C89.1387 92.7167 88.6211 92.4732 88.4352 92.7978Z" fill="#17282F"/>
<path d="M88.8038 89.9177C88.9916 89.4462 89.1807 88.9759 89.3788 88.5082C89.5839 88.0245 89.8229 87.5478 89.9897 87.0501C90.0159 86.9715 90.1398 87.0245 90.1085 87.1031C89.9219 87.5759 89.7992 88.0794 89.6491 88.5644C89.4983 89.0526 89.3392 89.5369 89.1782 90.0212C88.8779 90.9228 88.5105 91.818 88.1226 92.6876C88.6242 92.6812 89.1399 92.6588 89.5954 92.432C90.0893 92.1853 90.3896 91.6601 90.6331 91.1854C90.9034 90.6576 91.1513 90.119 91.4299 89.5957C91.7372 89.0161 92.0771 88.4443 92.2797 87.8175C92.3052 87.7382 92.4273 87.7913 92.3991 87.8711C91.9378 89.1644 91.4842 90.457 90.7666 91.6493C90.4842 92.1176 90.2561 92.6045 89.736 92.7879C89.1782 92.9853 88.568 92.9463 87.9878 92.9048C87.9156 92.9246 87.823 92.8786 87.8479 92.7917C88.1233 91.8269 88.4319 90.8493 88.8038 89.9177Z" fill="#17282F"/>
<path d="M87.501 95.885C88.5897 98.1942 89.5475 100.494 90.566 102.794C91.5609 105.042 92.4918 107.316 93.3966 109.601C95.224 114.218 96.861 118.92 98.2967 123.674C99.0079 126.027 99.6621 128.396 100.253 130.781C100.846 133.173 101.426 135.589 101.672 138.045C101.918 140.509 101.743 142.945 101.056 145.328C100.36 147.745 99.4417 149.856 98.3523 152.117C97.6865 153.499 97.4571 153.313 97.7798 152.615C98.6941 150.635 101.088 144.638 100.915 139.594C100.831 137.161 100.331 134.765 99.7823 132.4C99.2213 129.988 98.5874 127.591 97.8967 125.212C96.5358 120.524 94.9192 115.928 93.256 111.341C92.3244 108.77 91.3245 106.226 90.3788 103.661C89.4268 101.076 88.4441 98.752 87.3872 95.9303C87.3598 95.8569 87.4677 95.8141 87.501 95.885Z" fill="#17282F"/>
<path d="M64.9471 88.2609C65.4787 88.0641 66.2173 88.3899 66.7598 88.4813C67.4556 88.5982 68.1591 88.6692 68.8645 88.6935C69.5597 88.7171 70.26 88.6883 70.9526 88.6212C71.644 88.5542 72.35 88.4685 72.9519 88.0935C73.9653 87.4603 74.8132 86.3466 75.5 85.3869C76.2546 84.332 77.038 83.1192 77.4878 81.8969C77.5153 81.8222 77.6226 81.8733 77.5996 81.9474C77.376 82.6592 77.2099 83.3774 76.9249 84.0738C76.6578 84.7288 76.3121 85.3549 75.9447 85.9581C75.2598 87.0858 74.4745 88.2883 73.2995 88.9586C72.0669 89.6621 70.4791 89.6199 69.1048 89.5407C68.3099 89.4947 67.5183 89.3893 66.7394 89.2257C66.1765 89.1068 65.2308 89.0168 64.8717 88.5222C64.8085 88.4347 64.8423 88.2999 64.9471 88.2609Z" fill="#17282F"/>
<path d="M43.4763 191.873C48.3588 184.484 53.1499 177.035 57.855 169.532C62.5729 162.009 67.2026 154.433 71.7685 146.818C72.8605 144.996 74.1224 143.177 74.8259 141.159C75.5901 138.966 75.1563 136.842 74.4636 134.696C73.1934 130.761 71.6114 126.931 69.9034 123.167C68.1911 119.392 66.3464 115.68 64.5324 111.953C62.7329 108.257 60.8181 104.548 59.4531 100.664C58.1495 96.9531 57.653 93.1054 58.6537 89.257C59.6466 85.4386 61.7943 82.01 64.0366 78.8101C64.6289 77.9667 65.2308 77.1297 65.825 76.2875C65.8697 76.223 65.9675 76.3009 65.9202 76.3642C63.449 79.7002 61.039 83.231 59.5894 87.1478C58.8733 89.0825 58.4093 91.1201 58.3639 93.1884C58.3175 95.2855 58.7111 97.3672 59.3293 99.3652C60.5306 103.249 62.4275 106.928 64.1951 110.578C66.0026 114.309 67.8582 118.017 69.6006 121.779C71.3532 125.564 72.9934 129.407 74.341 133.357C74.9409 135.115 75.6099 136.955 75.5703 138.84C75.5269 140.903 74.5416 142.761 73.5218 144.501C69.0792 152.076 64.4685 159.556 59.8003 166.994C55.1145 174.461 50.3358 181.867 45.4828 189.226C44.8711 190.154 44.2578 191.081 43.6431 192.007C43.5669 192.122 43.4007 191.986 43.4763 191.873Z" fill="#17282F"/>
<path d="M97.0549 52.225C99.8203 58.295 113.79 66.6608 120.334 67.5592C125.042 68.2058 139.336 68.4281 144.238 67.6799C149.979 66.8033 145.593 51.303 142.198 51.7004C132.87 52.7911 124.949 54.0051 122.459 54.0051C119.419 54.0051 102.963 48.7229 100.981 47.9798C96.1284 46.162 95.4862 48.7817 97.0549 52.225Z" fill="#F57A76"/>
<path d="M97.1404 53.8322C100.641 59.0134 112.282 67.4834 112.282 67.4834L113.896 63.904L119.242 52.0744C119.242 52.0744 108.553 48.7014 101.519 47.1986C100.568 46.9948 99.7314 46.8721 99.0017 46.8401C94.5111 46.598 94.1214 49.3749 97.1404 53.8322Z" fill="url(#paint0_linear_251_1488)"/>
<path d="M97.1404 53.8322C100.641 59.0134 112.282 67.4834 112.282 67.4834L113.896 63.904C109.556 58.8659 102.856 51.2297 99.0017 46.8401C94.5111 46.598 94.1214 49.3749 97.1404 53.8322Z" fill="#17282F"/>
<path d="M110.184 65.0911C111.07 62.9167 115.022 54.1439 116.003 52.3025C116.072 52.1753 116.168 52.1849 116.114 52.3267C113.612 58.9022 111.248 63.0298 110.27 65.1211L110.184 65.0911Z" fill="#17282F"/>
<path d="M140.484 51.8702C146.161 51.1258 153.185 49.8517 159.132 52.3769C160.298 52.872 160.721 53.7417 160.721 53.7417C163.407 54.826 163.701 56.4195 163.701 56.4195C165.893 58.1952 165.97 59.8666 165.97 59.8666C165.97 59.8666 169.109 61.174 168.634 63.2026C168.108 65.4786 163.802 63.1969 160.668 63.3905C153.484 63.8333 143.399 66.4721 141.34 66.8057L140.484 51.8702Z" fill="#F57A76"/>
<path d="M152.815 58.565C154.931 58.4768 157.008 58.335 159.125 58.5343C161.448 58.7522 163.647 59.3515 165.901 59.9061C165.972 59.9234 166.003 59.8276 165.936 59.7994C162.015 58.1497 156.987 57.7165 152.809 58.4691C152.708 58.487 152.709 58.5695 152.815 58.565Z" fill="#17282F"/>
<path d="M151.916 54.2679C153.98 54.2966 157.607 54.3694 163.678 56.4844L163.695 56.4492C159.936 54.5522 156.082 53.8775 151.918 54.1695C151.788 54.179 151.778 54.2659 151.916 54.2679Z" fill="#17282F"/>
<path d="M151.473 51.9508C154.98 52.1322 157.169 52.6913 160.698 53.752L160.712 53.7155C156.829 52.0894 155.235 51.9393 151.462 51.8287C151.333 51.8249 151.335 51.9431 151.473 51.9508Z" fill="#17282F"/>
<path d="M152.046 64.4713C151.134 64.8994 151.352 65.3812 153.098 65.7857C154.863 66.1984 162.096 66.3083 161.841 68.8347C161.589 71.3707 151.355 71.0468 148.501 70.151C145.643 69.2609 141.34 66.8048 141.34 66.8048C143.344 66.4668 148.125 65.1844 152.046 64.4713Z" fill="#F57A76"/>
<path d="M104.648 61.902C104.604 62.994 104.497 64.1051 104.344 65.206L104.39 65.0885C104.603 64.5134 104.811 63.9236 105.068 63.3678L105.127 63.3818C105.015 63.9856 104.803 64.5913 104.574 65.16C104.464 65.4316 104.352 65.7031 104.234 65.9721C104.154 66.4628 104.067 66.9504 103.967 67.4302C103.779 68.3439 102.916 72.2306 102.719 72.8875C102.678 73.0261 102.514 72.9942 102.524 72.8402C102.571 72.1246 103.295 68.0768 103.441 67.1599C103.722 65.4003 104.109 63.6048 104.58 61.886L104.648 61.902Z" fill="#17282F"/>
<path d="M97.9857 90.9492C96.2816 91.8284 94.0836 93.1894 84.1812 91.2393C83.562 91.1141 82.9397 90.9614 82.3154 90.7761C73.0289 87.9864 61.8899 77.0655 61.2617 76.2955C61.2617 76.2955 76.0115 52.3789 94.8804 44.861C97.2119 43.9326 101.074 45.7236 103.211 47.9542C103.975 48.7503 105.631 54.6191 104.995 59.3748C104.354 64.1229 99.7019 90.0796 97.9857 90.9492Z" fill="url(#paint1_linear_251_1488)"/>
<path d="M96.6745 59.155C96.7288 59.6687 96.6879 60.1697 96.6253 60.6668C96.5512 61.1626 96.4534 61.6546 96.2598 62.1338C96.2055 61.6201 96.2457 61.1198 96.3096 60.6227C96.385 60.1268 96.4828 59.6349 96.6745 59.155Z" fill="white"/>
<path d="M90.2412 75.4431C90.2955 75.9568 90.2546 76.4571 90.192 76.9548C90.1172 77.45 90.0195 77.9427 89.8265 78.4219C89.7716 77.9082 89.8124 77.4078 89.8757 76.9107C89.9511 76.4149 90.0489 75.9223 90.2412 75.4431Z" fill="white"/>
<path d="M79.3076 63.1345C79.3619 63.6482 79.3217 64.1485 79.2584 64.6456C79.1836 65.1414 79.0865 65.6341 78.8929 66.1133C78.838 65.5996 78.8789 65.0993 78.9421 64.6022C79.0181 64.1063 79.1153 63.6137 79.3076 63.1345Z" fill="white"/>
<path d="M100.882 74.6169C100.936 75.1306 100.895 75.6309 100.833 76.1287C100.758 76.6238 100.66 77.1165 100.467 77.5957C100.412 77.082 100.453 76.5817 100.516 76.0846C100.592 75.5887 100.69 75.0961 100.882 74.6169Z" fill="white"/>
<path d="M86.8438 61.0225C87.3568 60.9682 87.8571 61.0091 88.3549 61.0717C88.8507 61.1464 89.3427 61.2442 89.8219 61.4372C89.3082 61.4921 88.8079 61.4512 88.3108 61.388C87.8156 61.3126 87.323 61.2148 86.8438 61.0225Z" fill="white"/>
<path d="M74.4336 72.7891C74.9467 72.7354 75.4476 72.7757 75.9447 72.8383C76.4405 72.913 76.9332 73.0108 77.4124 73.2038C76.8987 73.2587 76.3977 73.2178 75.9006 73.1546C75.4054 73.0792 74.9128 72.9814 74.4336 72.7891Z" fill="white"/>
<path d="M89.0312 85.5254C89.545 85.4711 90.0459 85.5114 90.543 85.574C91.0388 85.6494 91.5308 85.7465 92.01 85.9401C91.497 85.9951 90.996 85.9542 90.4989 85.8903C90.0031 85.8149 89.5111 85.7171 89.0312 85.5254Z" fill="white"/>
<path d="M70.6094 80.8978C71.1231 80.8441 71.6234 80.8844 72.1211 80.9477C72.6163 81.0224 73.109 81.1202 73.5882 81.3131C73.0745 81.3681 72.5742 81.3272 72.0771 81.2639C71.5812 81.1885 71.0886 81.0908 70.6094 80.8978Z" fill="white"/>
<path d="M96.5781 47.7084C97.0918 47.6547 97.5921 47.6949 98.0899 47.7582C98.5851 47.8329 99.0777 47.9307 99.5569 48.1237C99.0432 48.1786 98.5429 48.1377 98.0452 48.0745C97.55 47.9991 97.0573 47.9013 96.5781 47.7084Z" fill="white"/>
<path d="M92.9702 51.7853C92.645 52.1865 92.2623 52.5118 91.8661 52.8191C91.4629 53.1169 91.0457 53.3961 90.5703 53.5986C90.8949 53.1961 91.277 52.8715 91.6738 52.5648C92.0776 52.2671 92.4948 51.9885 92.9702 51.7853Z" fill="white"/>
<path d="M73.2938 63.3663C72.9692 63.7676 72.5865 64.0928 72.1903 64.4002C71.7871 64.6979 71.3699 64.9771 70.8945 65.1797C71.2185 64.7771 71.6012 64.4525 71.998 64.1459C72.4018 63.8487 72.819 63.5695 73.2938 63.3663Z" fill="white"/>
<path d="M97.8602 68.5984C97.5356 68.9997 97.1529 69.3249 96.7567 69.6323C96.3536 69.9294 95.9363 70.2086 95.4609 70.4111C95.7855 70.0092 96.1676 69.684 96.5644 69.3773C96.9682 69.0802 97.3855 68.801 97.8602 68.5984Z" fill="white"/>
<path d="M81.95 78.616C81.6255 79.0173 81.2427 79.3425 80.8466 79.6498C80.4434 79.9476 80.0262 80.2268 79.5508 80.4287C79.8754 80.0268 80.2575 79.7016 80.6543 79.3949C81.0581 79.0978 81.4753 78.8186 81.95 78.616Z" fill="white"/>
<path d="M103.958 54.9083C103.634 55.3096 103.251 55.6348 102.855 55.9422C102.452 56.2399 102.035 56.5191 101.559 56.7217C101.883 56.3191 102.266 55.9939 102.663 55.6872C103.067 55.3901 103.484 55.1115 103.958 54.9083Z" fill="white"/>
<path d="M103.622 66.5195C103.221 66.1949 102.895 65.8122 102.588 65.4161C102.29 65.0129 102.011 64.5956 101.809 64.1203C102.211 64.4442 102.536 64.8276 102.843 65.2237C103.14 65.6276 103.419 66.0448 103.622 66.5195Z" fill="white"/>
<path d="M68.161 74.5166C67.7591 74.1914 67.4339 73.8093 67.1265 73.4131C66.8288 73.01 66.5496 72.5921 66.3477 72.1167C66.7496 72.4413 67.0748 72.824 67.3815 73.2208C67.6786 73.6246 67.9578 74.0419 68.161 74.5166Z" fill="white"/>
<path d="M99.3133 84.0361C98.9121 83.7109 98.5869 83.3288 98.2795 82.9327C97.9818 82.5295 97.7025 82.1116 97.5 81.6362C97.9025 81.9608 98.2271 82.3435 98.5338 82.7403C98.8309 83.1442 99.1102 83.5614 99.3133 84.0361Z" fill="white"/>
<path d="M83.704 56.9111C83.3021 56.5859 82.9768 56.2038 82.6695 55.807C82.3724 55.4039 82.0932 54.9866 81.8906 54.5112C82.2925 54.8358 82.6178 55.2186 82.9245 55.6154C83.2216 56.0185 83.5008 56.4364 83.704 56.9111Z" fill="white"/>
<path d="M83.9774 89.4521C83.5755 89.1269 83.2503 88.7448 82.9436 88.3487C82.6458 87.9449 82.3666 87.5276 82.1641 87.0523C82.566 87.3768 82.8912 87.7596 83.1979 88.1557C83.495 88.5602 83.7742 88.9768 83.9774 89.4521Z" fill="white"/>
<path d="M86.633 70.2559C86.2318 69.9306 85.9065 69.5485 85.5992 69.1524C85.3014 68.7486 85.0222 68.3313 84.8203 67.856C85.2222 68.1805 85.5474 68.5633 85.8541 68.9594C86.1513 69.3639 86.4305 69.7811 86.633 70.2559Z" fill="white"/>
<path d="M99.7444 54.3207C97.3406 53.8728 95.0736 48.896 94.7893 45.5486C94.7708 45.3185 95.9145 43.4956 97.2 41.2146C97.9745 39.828 98.8045 38.2652 99.4587 36.7841C99.591 36.4793 100.379 37.4952 100.379 37.4952L102.091 38.8051L107.749 43.1435C107.749 43.1435 105.465 45.8444 104.34 48.4328C104.248 48.65 104.181 48.8602 104.135 49.0685L104.105 49.1753C103.783 50.4123 102.069 54.7508 99.7444 54.3207Z" fill="#F57A76"/>
<path d="M104.135 49.0691L104.104 49.1758C103.795 49.0882 103.471 48.9662 103.127 48.8045C96.9351 45.9024 99.6666 37.6063 99.6666 37.6063L102.091 38.8056L107.749 43.1441C107.749 43.1441 105.464 45.8449 104.339 48.4333C104.248 48.6506 104.181 48.8608 104.135 49.0691Z" fill="#17282F"/>
<path d="M114.246 25.4604C114.246 25.4604 117.075 27.2565 117.093 30.4506C117.112 33.6447 115.84 36.7692 115.544 36.881C115.249 36.9935 114.246 25.4604 114.246 25.4604Z" fill="#17282F"/>
<path d="M100.2 27.1179C98.4994 30.4762 98.585 41.0483 100.71 43.7728C103.789 47.7215 109.721 49.0825 113.301 45.1772C116.772 41.3927 116.416 27.6169 113.96 25.0496C110.344 21.2683 102.713 22.1583 100.2 27.1179Z" fill="#F57A76"/>
<path d="M109.224 35.5892L109.171 35.6544C109.21 36.3738 109.134 37.2051 108.488 37.4594L108.495 37.499C109.288 37.3693 109.378 36.2646 109.224 35.5892Z" fill="#17282F"/>
<path d="M108.565 34.8506C107.404 34.7892 107.367 37.1156 108.443 37.1719C109.501 37.2275 109.538 34.9017 108.565 34.8506Z" fill="#17282F"/>
<path d="M113.167 35.5614L113.222 35.626C113.188 36.3461 113.269 37.1767 113.917 37.4265L113.91 37.4668C113.117 37.3416 113.019 36.2387 113.167 35.5614Z" fill="#17282F"/>
<path d="M113.823 34.8196C114.983 34.75 115.037 37.0758 113.961 37.1403C112.904 37.2042 112.85 34.8778 113.823 34.8196Z" fill="#17282F"/>
<path d="M107.832 33.0801C108.15 33.0047 108.431 32.8826 108.738 32.7765C109.084 32.6564 109.373 32.5964 109.603 32.2916C109.726 32.128 109.681 31.8296 109.533 31.6948C109.189 31.3804 108.729 31.422 108.306 31.5498C107.847 31.6878 107.529 31.9121 107.261 32.3082C107.001 32.6922 107.412 33.1778 107.832 33.0801Z" fill="#17282F"/>
<path d="M114.626 34.1115C114.304 34.054 114.017 33.9466 113.705 33.8565C113.353 33.7556 113.061 33.7109 112.815 33.4182C112.683 33.261 112.713 32.9614 112.853 32.8182C113.18 32.486 113.642 32.5039 114.071 32.6087C114.537 32.7224 114.867 32.9294 115.155 33.3109C115.435 33.6808 115.05 34.1875 114.626 34.1115Z" fill="#17282F"/>
<path d="M107.581 42.4165C107.751 42.5878 107.92 42.8223 108.181 42.8485C108.431 42.874 108.727 42.7654 108.958 42.6798L108.989 42.7175C108.797 42.9909 108.401 43.1577 108.068 43.0938C107.742 43.0318 107.586 42.7475 107.512 42.4478L107.581 42.4165Z" fill="#17282F"/>
<path d="M111.767 39.3351C111.767 39.3351 111.797 40.4136 111.743 40.9146C111.737 40.9612 110.325 40.6852 108.801 41.02C108.573 41.0698 108.595 40.8845 108.86 40.7631C109.387 40.5203 110.056 40.2916 111.36 40.4315C111.41 40.2967 111.282 38.7722 111.362 38.7747C111.638 38.7811 112.158 39.0271 112.472 39.1568C112.473 36.909 112.114 34.6784 112.149 32.4395C112.151 32.3596 112.268 32.3488 112.283 32.4216C112.826 34.7327 112.88 37.3198 112.939 39.6418C112.949 39.9312 111.958 39.4424 111.767 39.3351Z" fill="#17282F"/>
<path d="M110.331 40.5319C110.331 40.5319 109.829 41.7957 108.989 42.135C108.023 42.526 107.692 41.6519 108.678 40.8788C109.195 40.4737 110.331 40.5319 110.331 40.5319Z" fill="#17282F"/>
<path d="M109.324 41.9386C109.215 42.0217 109.106 42.092 108.985 42.1367C108.097 42.4945 107.745 41.7853 108.462 41.0696C108.947 41.108 109.477 41.2869 109.324 41.9386Z" fill="#F577B8"/>
<path d="M99.7099 36.163C100.878 36.5214 102.222 33.0084 102.602 31.6577C102.937 30.4667 103.323 26.6905 103.381 26.433C103.438 26.1755 108.474 29.7747 111.419 28.914C114.364 28.0534 116.332 25.4107 116.373 24.1775C116.413 22.9437 112.757 19.8122 109.593 19.6525C106.429 19.4921 102.146 23.5136 102.146 23.5136C102.146 23.5136 103.601 21.7757 103.551 21.6332C103.502 21.4907 101.457 22.3079 101.082 23.7635C101.082 23.7635 101.486 21.9354 101.332 21.9016C101.177 21.8677 99.5885 23.4338 99.947 24.6197C99.947 24.6197 98.1094 26.2119 97.9394 27.9563C97.7695 29.7012 98.3375 35.7419 99.7099 36.163Z" fill="#17282F"/>
<path d="M113.513 28.299C112.618 28.7111 111.721 29.1635 110.731 29.2945C109.661 29.4357 108.552 29.1673 107.556 28.7852C106.538 28.3955 105.612 27.83 104.772 27.1374C104.035 26.531 103.381 25.7994 102.595 25.2595C102.398 25.1241 102.17 25.4077 102.292 25.5886C103.486 27.3802 105.598 28.876 107.635 29.522C109.778 30.2012 111.792 29.7232 113.524 28.322L113.513 28.299Z" fill="#17282F"/>
<path d="M100.937 35.8495C100.937 35.8495 99.124 32.1679 97.4882 32.7653C95.8519 33.3621 96.8589 38.4488 98.5284 39.381C100.197 40.312 101.09 38.7836 101.09 38.7836L100.937 35.8495Z" fill="#F57A76"/>
<path d="M97.8135 34.2172L97.7969 34.2632C98.961 34.9571 99.4377 36.2088 99.7118 37.4727C99.4128 36.9564 98.9489 36.6273 98.2659 36.9724L98.2895 37.0439C98.8147 37.0133 99.1681 37.1577 99.4492 37.6177C99.6479 37.9442 99.7578 38.334 99.8811 38.6937C99.922 38.8138 100.132 38.7851 100.109 38.6509L100.103 38.6202C100.378 37.0427 99.4888 34.6376 97.8135 34.2172Z" fill="#17282F"/>
<path d="M88.9536 52.2816C87.7044 59.5196 95.5195 83.9097 100.551 88.4654C108.034 95.2402 121.869 99.695 126.882 101.144C129.067 101.776 135.112 86.401 132.901 85.3882C128.167 83.2196 113.459 78.632 112.074 77.4537C110.689 76.2761 102.237 64.1156 98.4797 57.1018C93.439 47.692 89.5855 48.6204 88.9536 52.2816Z" fill="#F57A76"/>
<path d="M129.179 84.0361C129.179 84.0361 135.703 85.6986 139.918 86.9868C142.27 87.7049 146.192 89.2966 147.679 90.6147C149.901 92.5865 157.94 102.252 155.639 104.252C153.556 106.061 147.703 96.8809 147.703 96.8809C147.703 96.8809 154.427 105.623 151.518 107.341C148.609 109.059 143.377 97.8068 143.377 97.8068C143.377 97.8068 150.084 106.944 146.803 108.241C144.324 109.222 139.011 99.2968 139.011 99.2968C139.011 99.2968 144.721 107.19 142.215 108.309C139.446 109.544 133.967 100.691 133.967 100.691C127.119 102.46 123.134 100.501 120.466 98.7703C119.82 98.3512 129.179 84.0361 129.179 84.0361Z" fill="#F57A76"/>
<path d="M145.577 93.7081C146.404 94.7061 147.248 95.7118 147.983 96.7795C148.718 97.8485 149.417 98.943 150.05 100.075C151.601 102.852 152.139 104.833 152.092 104.715C150.992 101.906 148.418 98.0402 147.683 96.9712C146.949 95.9054 146.269 94.802 145.535 93.7349L145.577 93.7081Z" fill="#17282F"/>
<path d="M141.666 96.2934C143.083 97.4166 146.057 101.6 147.203 104.402C147.251 104.52 147.188 104.511 147.118 104.404C146.22 103.019 142.593 97.6499 141.633 96.3151L141.666 96.2934Z" fill="#17282F"/>
<path d="M137.915 97.9086C139.556 99.5322 140.934 101.75 142.017 104.312C142.066 104.428 141.973 104.411 141.906 104.301C140.583 102.146 139.559 100.447 137.848 97.9648L137.915 97.9086Z" fill="#17282F"/>
<path d="M96.0632 52.8147C90.229 44.5633 86.7429 47.6219 87.9128 56.5781C89.0067 64.9541 91.9426 74.9326 91.9426 74.9326L106.665 67.8019C106.665 67.8019 99.7966 58.095 96.0632 52.8147Z" fill="url(#paint2_linear_251_1488)"/>
<path d="M99.6324 56.059C99.8407 56.5312 99.955 57.0206 100.047 57.5133C100.127 58.0078 100.184 58.5068 100.147 59.0225C99.9378 58.5496 99.824 58.0608 99.732 57.5676C99.6528 57.073 99.5959 56.574 99.6324 56.059Z" fill="white"/>
<path d="M90.918 61.0744C91.3908 60.8661 91.8796 60.7524 92.3722 60.6597C92.8674 60.5799 93.3658 60.5224 93.8814 60.5601C93.4086 60.7696 92.9198 60.8834 92.4265 60.9747C91.932 61.054 91.433 61.1115 90.918 61.0744Z" fill="white"/>
<path d="M91.2986 48.2444C91.1114 48.7262 90.8462 49.1524 90.5632 49.5658C90.2699 49.9722 89.9574 50.3658 89.5664 50.7031C89.753 50.2214 90.0181 49.7952 90.3018 49.3818C90.5958 48.976 90.9082 48.5824 91.2986 48.2444Z" fill="white"/>
<path d="M103.724 64.929C103.537 65.4108 103.272 65.837 102.988 66.2504C102.695 66.6567 102.383 67.0503 101.992 67.3877C102.179 66.9066 102.444 66.4797 102.728 66.067C103.022 65.6606 103.334 65.2677 103.724 64.929Z" fill="white"/>
<path d="M93.5368 69.9336C93.0557 69.7464 92.6289 69.4819 92.2155 69.1982C91.8091 68.9049 91.4155 68.5931 91.0781 68.202C91.5599 68.388 91.9861 68.6531 92.3995 68.9375C92.8058 69.2314 93.1988 69.5432 93.5368 69.9336Z" fill="white"/>
<path d="M98.0233 55.2979C98.8066 56.3759 99.6181 57.4327 100.427 58.4914C100.222 57.956 100.044 57.4154 99.8858 56.8627L99.9248 56.85C100.088 57.2742 100.27 57.6915 100.426 58.1183C100.502 58.3228 100.578 58.5272 100.657 58.7311L100.709 58.862C101.338 59.6882 101.965 60.5163 102.571 61.3597C103.293 62.3654 103.991 63.3896 104.692 64.4113C105.416 65.4669 106.103 66.7045 106.868 67.7307C106.934 67.8195 105.565 68.3722 105.437 68.4437C105.306 68.5166 105.217 68.3894 105.357 68.3473C105.484 68.3083 106.569 67.6419 106.583 67.6285C105.882 66.5985 105.068 65.6458 104.335 64.6388C103.605 63.6363 102.872 62.6363 102.165 61.6178C100.727 59.5508 99.4066 57.402 97.9805 55.3254L98.0233 55.2979Z" fill="#17282F"/>
<path d="M88.2797 62.5024C88.5033 62.9382 88.7442 63.3695 88.9422 63.818C89.024 64.0027 89.1045 64.1886 89.187 64.3739C88.8509 62.7784 88.5225 61.1824 88.1953 59.5856L88.2247 59.576C88.8988 62.1625 89.5806 64.7458 90.2074 67.3438C90.8048 69.8203 91.5262 72.3276 91.868 74.8546C92.0718 74.7875 93.2175 74.3134 93.2507 74.3876C93.2839 74.4623 91.7524 75.1831 91.7319 75.1224C90.8987 72.6534 90.3831 69.8478 89.8157 67.3061C89.656 66.5904 89.5071 65.8729 89.3544 65.156C89.1889 64.7241 88.987 64.3081 88.7908 63.8883C88.5825 63.4442 88.4157 62.9797 88.2336 62.5241L88.2797 62.5024Z" fill="#17282F"/>
<path d="M92.1797 72.4705C94.225 71.3166 102.77 66.8938 104.682 66.0599C104.815 66.0018 104.884 66.0695 104.754 66.1475C98.7098 69.7486 94.294 71.5159 92.2289 72.5479L92.1797 72.4705Z" fill="#17282F"/>
<path d="M326.307 240.447H131.633L159.782 80.8045H354.456L326.307 240.447Z" fill="url(#paint3_linear_251_1488)"/>
<path d="M226.412 64.2738H162.7L159.785 80.8066H227.968L226.412 64.2738Z" fill="url(#paint4_linear_251_1488)"/>
<path d="M326.307 240.447H131.633L159.782 80.8045H354.456L351.522 97.4499L344.96 134.66L326.307 240.447Z" fill="#B1CCD7"/>
<path d="M227.968 80.8066H159.785L162.7 64.2738H226.412L227.968 80.8066Z" fill="#B1CCD7"/>
<path d="M155.827 71.0176C155.575 70.0905 155.519 69.164 155.508 68.2369C155.517 67.3104 155.574 66.3839 155.827 65.4568C156.08 66.3839 156.137 67.3104 156.146 68.2369C156.135 69.164 156.079 70.0905 155.827 71.0176Z" fill="#17282F"/>
<path d="M150.163 72.6553C149.481 71.9786 148.969 71.2042 148.497 70.4074C148.041 69.5998 147.627 68.7692 147.383 67.8395C148.065 68.5155 148.578 69.2899 149.049 70.088C149.503 70.8956 149.918 71.7262 150.163 72.6553Z" fill="#17282F"/>
<path d="M146.077 76.9023C145.148 76.6576 144.318 76.243 143.51 75.7893C142.712 75.3177 141.938 74.8053 141.262 74.1223C142.191 74.3663 143.022 74.781 143.829 75.236C144.626 75.7088 145.401 76.2212 146.077 76.9023Z" fill="#17282F"/>
<path d="M144.666 82.6249C143.739 82.8772 142.813 82.9335 141.886 82.9443C140.959 82.9348 140.033 82.8785 139.105 82.6249C140.033 82.3718 140.959 82.315 141.886 82.306C142.813 82.3162 143.739 82.3731 144.666 82.6249Z" fill="#17282F"/>
<path d="M146.304 88.2863C145.627 88.9681 144.853 89.4805 144.056 89.9527C143.249 90.4083 142.418 90.8223 141.488 91.0664C142.164 90.384 142.939 89.8709 143.737 89.4C144.544 88.9457 145.375 88.5317 146.304 88.2863Z" fill="#17282F"/>
<path d="M150.554 92.3708C150.309 93.2998 149.894 94.1304 149.44 94.9387C148.969 95.7361 148.456 96.5105 147.773 97.1865C148.018 96.2575 148.432 95.4262 148.887 94.6192C149.36 93.8218 149.872 93.0474 150.554 92.3708Z" fill="#17282F"/>
<path d="M156.272 93.7839C156.524 94.711 156.581 95.6375 156.591 96.564C156.582 97.4911 156.526 98.4176 156.272 99.3447C156.019 98.4176 155.962 97.4911 155.953 96.564C155.963 95.6375 156.02 94.711 156.272 93.7839Z" fill="#17282F"/>
<path d="M161.938 92.1471C162.619 92.8238 163.132 93.5982 163.604 94.3949C164.059 95.2026 164.473 96.0332 164.718 96.9629C164.035 96.2869 163.523 95.5125 163.051 94.7144C162.597 93.9068 162.183 93.0755 161.938 92.1471Z" fill="#17282F"/>
<path d="M166.02 87.8986C166.949 88.1434 167.779 88.558 168.587 89.0117C169.385 89.4832 170.159 89.9957 170.835 90.6787C169.906 90.4346 169.075 90.0199 168.268 89.565C167.471 89.0922 166.696 88.5798 166.02 87.8986Z" fill="#17282F"/>
<path d="M167.434 82.1763C168.361 81.9239 169.287 81.8677 170.214 81.8568C171.141 81.8664 172.067 81.9226 172.994 82.1763C172.067 82.4293 171.141 82.4862 170.214 82.4951C169.287 82.4843 168.361 82.428 167.434 82.1763Z" fill="#17282F"/>
<path d="M165.797 76.5146C166.474 75.8329 167.248 75.3205 168.045 74.8483C168.852 74.3927 169.683 73.9786 170.613 73.7346C169.937 74.417 169.162 74.9294 168.364 75.401C167.557 75.8553 166.725 76.2693 165.797 76.5146Z" fill="#17282F"/>
<path d="M161.551 72.4297C161.795 71.5013 162.21 70.6707 162.664 69.8624C163.136 69.065 163.648 68.2906 164.331 67.6145C164.087 68.5436 163.672 69.3749 163.217 70.1819C162.744 70.9793 162.232 71.7537 161.551 72.4297Z" fill="#17282F"/>
<path d="M326.025 240.447H130.93L103.23 86.6004H298.325L326.025 240.447Z" fill="#9AB2BC"/>
<path d="M178.944 172.54C178.944 177.018 175.314 180.648 170.835 180.648C166.357 180.648 162.727 177.018 162.727 172.54C162.727 168.061 166.357 164.431 170.835 164.431C175.314 164.431 178.944 168.061 178.944 172.54Z" fill="#17282F"/>
<path d="M243.047 172.54C243.047 177.018 239.415 180.648 234.937 180.648C230.459 180.648 226.828 177.018 226.828 172.54C226.828 168.061 230.459 164.431 234.937 164.431C239.415 164.431 243.047 168.061 243.047 172.54Z" fill="#17282F"/>
<path d="M214.535 181.945L214.089 181.096C214.049 181.019 209.86 173.277 201.431 173.277C193.744 173.277 191.87 180.567 191.794 180.878L191.566 181.807L189.707 181.357L189.931 180.427C189.952 180.337 192.215 171.36 201.431 171.36C211.039 171.36 215.598 179.845 215.787 180.207L216.232 181.055L214.535 181.945Z" fill="#17282F"/>
<path d="M313.145 171.921C313.566 171.831 313.985 171.733 314.401 171.626L314.244 171.007C313.834 171.112 313.423 171.209 313.012 171.297L313.145 171.922" fill="#17282F"/>
<path d="M316.877 170.895C317.694 170.619 318.5 170.312 319.292 169.978L319.043 169.389C318.266 169.718 317.475 170.018 316.673 170.289L316.877 170.895ZM321.632 168.883C322.402 168.487 323.153 168.064 323.883 167.615L323.549 167.07C322.832 167.511 322.095 167.927 321.34 168.315L321.632 168.883ZM326.028 166.175C326.729 165.662 327.404 165.124 328.049 164.563L327.629 164.081C326.998 164.63 326.338 165.157 325.651 165.659L326.028 166.175ZM329.921 162.777C330.523 162.147 331.089 161.492 331.613 160.818L331.109 160.425C330.598 161.083 330.047 161.72 329.459 162.336L329.921 162.777ZM333.089 158.686C333.545 157.94 333.951 157.174 334.303 156.389L333.721 156.127C333.38 156.886 332.987 157.629 332.544 158.353L333.089 158.686ZM335.204 153.949C335.445 153.116 335.625 152.266 335.74 151.403L335.106 151.32C334.997 152.15 334.823 152.967 334.59 153.771L335.204 153.949ZM335.908 148.813C335.908 148.751 335.908 148.689 335.908 148.627C335.908 147.814 335.866 147.015 335.785 146.229L335.149 146.295C335.229 147.059 335.269 147.836 335.269 148.627C335.269 148.687 335.269 148.747 335.269 148.808L335.908 148.813ZM335.382 143.675C335.202 142.828 334.98 141.995 334.721 141.176L334.111 141.369C334.365 142.17 334.582 142.982 334.757 143.807L335.382 143.675ZM333.836 138.751C333.51 137.959 333.153 137.178 332.771 136.404L332.198 136.687C332.575 137.449 332.926 138.217 333.246 138.994L333.836 138.751ZM331.564 134.129C331.145 133.387 330.707 132.651 330.253 131.918L329.71 132.254C330.159 132.98 330.594 133.709 331.008 134.444L331.564 134.129ZM328.871 129.754C328.404 129.043 327.927 128.333 327.446 127.623L326.917 127.982C327.398 128.69 327.872 129.397 328.337 130.105L328.871 129.754ZM326.004 125.51C325.524 124.808 325.043 124.105 324.566 123.397L324.037 123.755C324.515 124.464 324.996 125.169 325.476 125.871L326.004 125.51ZM323.157 121.269C322.694 120.556 322.24 119.838 321.798 119.113L321.252 119.445C321.698 120.176 322.156 120.9 322.621 121.617L323.157 121.269ZM320.514 116.915C320.101 116.174 319.705 115.425 319.329 114.666L318.756 114.949C319.137 115.719 319.538 116.478 319.955 117.226L320.514 116.915ZM318.271 112.361C317.944 111.586 317.641 110.799 317.368 109.998L316.763 110.205C317.042 111.021 317.35 111.822 317.683 112.61L318.271 112.361ZM316.641 107.575C316.433 106.767 316.256 105.944 316.114 105.104L315.484 105.211C315.629 106.068 315.81 106.909 316.022 107.734L316.641 107.575ZM315.802 102.599C315.741 101.839 315.709 101.065 315.709 100.278C315.709 100.209 315.709 100.141 315.71 100.073L315.071 100.069C315.07 100.138 315.07 100.208 315.07 100.278C315.07 101.083 315.103 101.873 315.166 102.65L315.802 102.599ZM315.835 97.5455C315.851 97.3704 315.869 97.1947 315.888 97.0177C315.962 96.3385 316.056 95.6791 316.169 95.0395L315.54 94.9283C315.424 95.582 315.328 96.2554 315.253 96.9487C315.233 97.1289 315.215 97.3084 315.199 97.4873L315.835 97.5455ZM316.721 92.5763C316.951 91.7406 317.217 90.9438 317.514 90.1835L316.919 89.9509C316.613 90.7323 316.341 91.5502 316.105 92.407L316.721 92.5763ZM318.56 87.8934C318.962 87.135 319.399 86.4194 319.868 85.744L319.343 85.3798C318.859 86.0756 318.409 86.8136 317.995 87.5951L318.56 87.8934ZM321.427 83.7709C321.993 83.1377 322.591 82.5493 323.216 82.0023L322.796 81.5218C322.152 82.0847 321.535 82.6917 320.951 83.3448L321.427 83.7709ZM325.207 80.458C325.904 79.9788 326.624 79.5424 327.361 79.1449L327.058 78.5826C326.302 78.9897 325.562 79.4388 324.845 79.9315L325.207 80.458ZM329.644 78.0619C330.426 77.7367 331.22 77.4504 332.021 77.2006L331.831 76.5904C331.012 76.846 330.199 77.1393 329.398 77.4721L329.644 78.0619ZM334.467 76.5489C335.3 76.3642 336.133 76.2141 336.96 76.0971L336.871 75.4646C336.027 75.584 335.177 75.7368 334.328 75.9252L334.467 76.5489ZM339.481 75.8371C340.242 75.7866 340.993 75.7629 341.727 75.7629C341.823 75.7629 341.92 75.7636 342.016 75.7642L342.021 75.1253C341.924 75.1246 341.825 75.124 341.727 75.124C340.979 75.124 340.215 75.1483 339.439 75.1994L339.481 75.8371ZM344.546 75.8831C345.426 75.9591 346.266 76.069 347.054 76.2083L347.165 75.5789C346.357 75.4365 345.498 75.324 344.601 75.246L344.546 75.8831ZM349.508 76.7808C349.652 76.8236 349.792 76.8677 349.929 76.9131C350.632 77.1444 351.266 77.4063 351.834 77.692L352.122 77.1214C351.522 76.8198 350.859 76.5463 350.129 76.3061C349.986 76.2594 349.84 76.2134 349.691 76.1687L349.508 76.7808ZM353.89 79.0574C354.568 79.658 355.058 80.3033 355.38 80.9602L355.954 80.6784C355.592 79.9404 355.048 79.2293 354.313 78.5788L353.89 79.0574ZM355.858 83.2751C355.807 84.0623 355.542 84.8226 355.082 85.5044L355.612 85.8616C356.131 85.0916 356.437 84.2207 356.496 83.3166L355.858 83.2751ZM353.329 87.144C352.682 87.5363 351.921 87.8411 351.055 88.0251L351.188 88.65C352.119 88.4519 352.949 88.1222 353.661 87.6909L353.329 87.144ZM348.594 88.211C348.257 88.195 347.912 88.1631 347.557 88.1145C347.069 88.0474 346.586 87.9663 346.11 87.8711L345.984 88.4979C346.473 88.5957 346.969 88.6787 347.47 88.7477C347.843 88.7988 348.208 88.8321 348.564 88.8493L348.594 88.211ZM343.667 87.2443C342.859 86.99 342.072 86.6929 341.307 86.3555L341.049 86.9401C341.835 87.2871 342.644 87.5919 343.475 87.8538L343.667 87.2443ZM339.06 85.2124C338.332 84.7894 337.629 84.3268 336.954 83.8272L336.574 84.3409C337.268 84.8546 337.99 85.33 338.739 85.7645L339.06 85.2124ZM335.012 82.2202C334.397 81.6509 333.811 81.0477 333.256 80.412L332.774 80.8318C333.344 81.4848 333.946 82.1046 334.579 82.6892L335.012 82.2202ZM331.699 78.4261C331.219 77.7424 330.77 77.03 330.355 76.2901L329.797 76.6025C330.223 77.361 330.683 78.0926 331.176 78.7942L331.699 78.4261ZM329.23 74.0295C328.896 73.2653 328.594 72.4781 328.329 71.6692L327.722 71.8692C327.994 72.6966 328.302 73.503 328.645 74.2857L329.23 74.0295ZM327.65 69.2348C327.463 68.4233 327.31 67.5933 327.192 66.748L326.559 66.8362C326.679 67.7 326.836 68.5479 327.028 69.3779L327.65 69.2348ZM326.948 64.2292C326.917 63.6631 326.901 63.09 326.901 62.5117C326.901 62.2415 326.904 61.9706 326.911 61.6984L326.273 61.6817C326.265 61.9597 326.262 62.2364 326.262 62.5117C326.262 63.1021 326.278 63.6861 326.31 64.2644L326.948 64.2292ZM327.073 59.1707C327.157 58.3432 327.274 57.5062 327.423 56.6609L326.793 56.5497C326.642 57.4103 326.524 58.2627 326.437 59.1061L327.073 59.1707ZM327.948 54.1804C328.149 53.3728 328.379 52.5588 328.64 51.7397L328.031 51.5454C327.766 52.378 327.532 53.2048 327.329 54.0265L327.948 54.1804ZM329.484 49.3461C329.796 48.5449 330.132 47.7711 330.492 47.0242L329.916 46.7475C329.55 47.5092 329.206 48.2976 328.889 49.1149L329.484 49.3461ZM331.678 44.7885C332.11 44.0473 332.564 43.3355 333.037 42.6531L332.512 42.2889C332.029 42.9854 331.566 43.7112 331.126 44.4671L331.678 44.7885ZM334.559 40.6289C335.1 39.9644 335.659 39.3306 336.232 38.7261L335.768 38.2865C335.185 38.9025 334.615 39.5485 334.064 40.2258L334.559 40.6289ZM338.04 36.9505C338.674 36.3703 339.319 35.8221 339.97 35.3052L339.572 34.8049C338.911 35.3314 338.255 35.8885 337.609 36.4789L338.04 36.9505ZM342.007 33.7909C342.718 33.297 343.43 32.8363 344.136 32.4075L343.804 31.8619C343.088 32.2964 342.364 32.7641 341.642 33.2663L342.007 33.7909ZM346.345 31.1539C347.124 30.7411 347.887 30.3674 348.624 30.0281L348.357 29.4479C347.61 29.791 346.836 30.1706 346.046 30.5897L346.345 31.1539ZM350.961 29.03C351.826 28.6888 352.629 28.4019 353.352 28.1623L353.151 27.556C352.418 27.7988 351.603 28.0901 350.727 28.4358L350.961 29.03Z" fill="#17282F"/>
<path d="M355.905 27.4053C356.297 27.3043 356.604 27.2327 356.812 27.1867C356.916 27.1637 356.995 27.1478 357.048 27.1369L357.126 27.1216L357.009 26.4935C357.002 26.4948 356.545 26.5804 355.746 26.7861L355.905 27.4053Z" fill="#17282F"/>
<path d="M367.208 23.2773C365.577 18.227 354.664 20.0416 356.794 26.6394C358.925 33.2379 368.838 28.3275 367.208 23.2773Z" fill="#17282F"/>
<path d="M350.853 21.2402C350.935 19.025 354.017 17.3209 358.372 18.1074C362.727 18.894 366.829 21.8274 366.829 21.8274C366.829 21.8274 362.522 24.4618 358.121 24.9263C353.72 25.3909 350.771 23.465 350.853 21.2402Z" fill="#E7E8E5"/>
<path d="M366.828 21.8291C364.567 21.8444 362.309 21.7684 360.05 21.6994C357.794 21.6029 355.535 21.5134 353.281 21.3313C355.543 21.3141 357.801 21.3914 360.06 21.4604C362.317 21.5569 364.574 21.647 366.828 21.8291Z" fill="#17282F"/>
<path d="M355.234 19.2807C355.888 19.5733 356.494 19.9439 357.103 20.3088C357.697 20.6973 358.296 21.0794 358.844 21.54C358.19 21.2474 357.585 20.8762 356.976 20.5113C356.381 20.1228 355.783 19.7401 355.234 19.2807Z" fill="#17282F"/>
<path d="M361.155 21.6193C360.582 22.1049 359.959 22.5139 359.341 22.9285C358.707 23.3202 358.078 23.7176 357.398 24.0371C357.97 23.5502 358.593 23.1419 359.212 22.7273C359.846 22.3362 360.475 21.9394 361.155 21.6193Z" fill="#17282F"/>
<path d="M361.812 20.3729C362.15 20.5179 362.43 20.7345 362.713 20.9454C362.981 21.178 363.252 21.4054 363.465 21.7051C363.126 21.5607 362.848 21.3434 362.564 21.1319C362.297 20.8994 362.026 20.6713 361.812 20.3729Z" fill="#17282F"/>
<path d="M355.002 34.3857C356.364 36.1345 359.86 35.7147 362.934 32.5295C366.006 29.345 367.618 24.5663 367.618 24.5663C367.618 24.5663 362.584 24.9484 358.742 27.1451C354.9 29.3425 353.635 32.6286 355.002 34.3857Z" fill="#E7E8E5"/>
<path d="M367.62 24.5658C365.776 25.8756 363.989 27.2583 362.197 28.6346C360.423 30.0333 358.644 31.4262 356.922 32.8926C358.766 31.5834 360.553 30.2007 362.344 28.8237C364.118 27.4244 365.897 26.0315 367.62 24.5658Z" fill="#17282F"/>
<path d="M359.707 33.416C360.066 32.7962 360.34 32.1413 360.621 31.4896C360.876 30.827 361.138 30.1676 361.314 29.4724C360.954 30.0922 360.68 30.7471 360.4 31.3995C360.145 32.0621 359.883 32.7221 359.707 33.416Z" fill="#17282F"/>
<path d="M363.137 28.0566C362.388 27.9972 361.644 28.0298 360.9 28.0547C360.158 28.1077 359.414 28.1537 358.676 28.2924C359.424 28.3524 360.168 28.3192 360.913 28.2937C361.656 28.2406 362.399 28.1946 363.137 28.0566Z" fill="#17282F"/>
<path d="M364.402 28.6836C364.59 28.368 364.691 28.0293 364.799 27.6913C364.878 27.3469 364.965 27.0038 364.963 26.637C364.774 26.9514 364.674 27.2907 364.567 27.628C364.487 27.9731 364.4 28.3162 364.402 28.6836Z" fill="#17282F"/>
<path d="M367.207 23.2778C366.2 23.6031 365.122 23.0504 364.796 22.0447C364.471 21.0383 365.024 19.9591 366.03 19.6345C367.036 19.3093 368.115 19.862 368.44 20.8677C368.765 21.8741 368.212 22.9532 367.207 23.2778Z" fill="#33535F"/>
<path d="M368.378 26.9207C367.372 27.2452 366.292 26.6932 365.968 25.6868C365.643 24.6811 366.195 23.6019 367.202 23.2767C368.207 22.9521 369.286 23.5042 369.612 24.5105C369.936 25.5162 369.384 26.5954 368.378 26.9207Z" fill="#33535F"/>
<path d="M158.902 25.2943C157.988 34.0403 150.152 40.3928 141.405 39.4778C137.871 39.1078 134.728 37.6076 132.295 35.3668L124.328 36.5367L128.315 29.6488C127.347 27.2955 126.94 24.6765 127.222 21.9801C128.136 13.2341 135.973 6.8823 144.719 7.79664C153.466 8.71162 159.817 16.5477 158.902 25.2943Z" fill="white"/>
<path d="M158.904 25.2939C159.388 20.4941 157.586 15.5103 154.069 12.2133C152.323 10.5642 150.208 9.31504 147.927 8.58983C145.643 7.87484 143.198 7.70489 140.845 8.05887C138.493 8.41988 136.215 9.29652 134.267 10.6575C132.325 12.0216 130.686 13.8056 129.503 15.8547C128.296 17.8987 127.671 20.2418 127.481 22.5931C127.332 24.9521 127.717 27.3399 128.602 29.5308L128.659 29.6733L128.584 29.803L124.574 36.6775L124.289 36.2571L132.264 35.1402L132.373 35.1248L132.452 35.1983C134.56 37.1772 137.228 38.5586 140.078 39.126C140.79 39.2697 141.512 39.3598 142.238 39.3886C142.964 39.4659 143.69 39.4116 144.418 39.3854C145.86 39.2372 147.313 38.9931 148.671 38.4493C150.034 37.9388 151.352 37.2692 152.512 36.3785C153.123 35.9727 153.64 35.4507 154.194 34.9747C154.683 34.4322 155.222 33.9313 155.642 33.33C157.47 31.0356 158.552 28.1993 158.904 25.2939ZM158.904 25.2939C158.572 28.2012 157.509 31.0509 155.69 33.3665C155.272 33.9735 154.734 34.4801 154.247 35.0284C153.693 35.5101 153.177 36.0392 152.566 36.4513C151.401 37.3484 150.092 38.0519 148.724 38.5899C147.363 39.163 145.897 39.4365 144.437 39.6128C143.7 39.6525 142.962 39.7196 142.224 39.6544C141.485 39.6378 140.749 39.5592 140.02 39.4256C137.106 38.8979 134.346 37.5337 132.142 35.5351L132.33 35.5932L124.371 36.8149L123.793 36.9037L124.086 36.3945L128.048 29.4931L128.03 29.766C126.1 25.2205 126.535 19.8073 129.011 15.5723C130.245 13.451 131.966 11.6236 133.998 10.2607C136.03 8.89398 138.384 8.03714 140.795 7.71063C143.208 7.39051 145.692 7.61032 147.996 8.37579C150.298 9.15084 152.408 10.4543 154.137 12.1418C157.654 15.4841 159.422 20.4986 158.904 25.2939Z" fill="#17282F"/>
<path d="M135.937 27.2854L135.567 14.6092H138.103L137.733 27.2854H135.937ZM135.277 31.0622C135.277 30.1115 135.937 29.4246 136.835 29.4246C137.787 29.4246 138.394 30.1115 138.394 31.0622C138.394 31.9862 137.787 32.6992 136.835 32.6992C135.911 32.6992 135.277 31.9862 135.277 31.0622Z" fill="url(#paint5_linear_251_1488)"/>
<path d="M142.012 27.2854L141.642 14.6092H144.177L143.808 27.2854H142.012ZM141.352 31.0622C141.352 30.1115 142.012 29.4246 142.91 29.4246C143.86 29.4246 144.468 30.1115 144.468 31.0622C144.468 31.9862 143.86 32.6992 142.91 32.6992C141.985 32.6992 141.352 31.9862 141.352 31.0622Z" fill="url(#paint6_linear_251_1488)"/>
<path d="M148.086 27.2854L147.717 14.6092H150.252L149.882 27.2854H148.086ZM147.426 31.0622C147.426 30.1115 148.086 29.4246 148.984 29.4246C149.935 29.4246 150.542 30.1115 150.542 31.0622C150.542 31.9862 149.935 32.6992 148.984 32.6992C148.06 32.6992 147.426 31.9862 147.426 31.0622Z" fill="url(#paint7_linear_251_1488)"/>
</g>
<defs>
<linearGradient id="paint0_linear_251_1488" x1="107.161" y1="36.5444" x2="127.582" y2="60.3194" gradientUnits="userSpaceOnUse">
<stop stop-color="#212121"/>
<stop offset="1" stop-color="#424242"/>
</linearGradient>
<linearGradient id="paint1_linear_251_1488" x1="83.0979" y1="20.9079" x2="130.564" y2="64.6364" gradientUnits="userSpaceOnUse">
<stop stop-color="#212121"/>
<stop offset="1" stop-color="#424242"/>
</linearGradient>
<linearGradient id="paint2_linear_251_1488" x1="97.1322" y1="34.5886" x2="122.498" y2="52.4583" gradientUnits="userSpaceOnUse">
<stop stop-color="#212121"/>
<stop offset="1" stop-color="#424242"/>
</linearGradient>
<linearGradient id="paint3_linear_251_1488" x1="242.529" y1="1.35282" x2="393.69" y2="212.338" gradientUnits="userSpaceOnUse">
<stop stop-color="#212121"/>
<stop offset="1" stop-color="#424242"/>
</linearGradient>
<linearGradient id="paint4_linear_251_1488" x1="193.719" y1="56.0456" x2="201.291" y2="87.2752" gradientUnits="userSpaceOnUse">
<stop stop-color="#212121"/>
<stop offset="1" stop-color="#424242"/>
</linearGradient>
<linearGradient id="paint5_linear_251_1488" x1="136.828" y1="5.60613" x2="142.881" y2="6.64876" gradientUnits="userSpaceOnUse">
<stop stop-color="#212121"/>
<stop offset="1" stop-color="#424242"/>
</linearGradient>
<linearGradient id="paint6_linear_251_1488" x1="142.903" y1="5.60613" x2="148.957" y2="6.64918" gradientUnits="userSpaceOnUse">
<stop stop-color="#212121"/>
<stop offset="1" stop-color="#424242"/>
</linearGradient>
<linearGradient id="paint7_linear_251_1488" x1="148.977" y1="5.60613" x2="155.029" y2="6.64876" gradientUnits="userSpaceOnUse">
<stop stop-color="#212121"/>
<stop offset="1" stop-color="#424242"/>
</linearGradient>
<clipPath id="clip0_251_1488">
<rect width="391" height="256.207" fill="white"/>
</clipPath>
</defs>
</svg>
