<svg width="20" height="18" viewBox="0 0 20 18" fill="none" xmlns="http://www.w3.org/2000/svg">
<path fill-rule="evenodd" clip-rule="evenodd" d="M7.90847 1.71947C8.826 0.0883031 11.1745 0.0883023 12.092 1.71947L18.7884 13.6241C19.6883 15.224 18.5322 17.2007 16.6966 17.2007H3.30388C1.4683 17.2007 0.312188 15.224 1.2121 13.6241L7.90847 1.71947ZM11.2001 13.6009C11.2001 14.2636 10.6629 14.8009 10.0001 14.8009C9.3374 14.8009 8.80015 14.2636 8.80015 13.6009C8.80015 12.9381 9.3374 12.4009 10.0001 12.4009C10.6629 12.4009 11.2001 12.9381 11.2001 13.6009ZM10.0001 4.00088C9.3374 4.00088 8.80015 4.53814 8.80015 5.20088V8.80088C8.80015 9.46362 9.3374 10.0009 10.0001 10.0009C10.6629 10.0009 11.2001 9.46362 11.2001 8.80088V5.20088C11.2001 4.53814 10.6629 4.00088 10.0001 4.00088Z" fill="#D68D00"/>
</svg>
